<?xml version="1.0" standalone="no"?>
<!DOCTYPE svg PUBLIC "-//W3C//DTD SVG 1.1//EN" "http://www.w3.org/Graphics/SVG/1.1/DTD/svg11.dtd" >
<!--
2013-9-30: Created.
-->
<svg>
<metadata>
Created by iconfont
</metadata>
<defs>

<font id="iconfont" horiz-adv-x="1024" >
  <font-face
    font-family="iconfont"
    font-weight="500"
    font-stretch="normal"
    units-per-em="1024"
    ascent="896"
    descent="-128"
  />
    <missing-glyph />
    
    <glyph glyph-name="guanji" unicode="&#59015;" d="M512-155.371258c-58.700937 0-115.659183 11.501962-169.292708 34.187637-51.791573 21.904892-98.299817 53.260018-138.231271 93.192495s-71.287603 86.440721-93.193519 138.232295c-22.684652 53.633524-34.187637 110.591771-34.187637 169.292708 0 85.417415 24.753777 168.104649 71.585385 239.124146 45.63434 69.204152 109.605304 123.718743 184.998411 157.6526 1.444908 0.649799 2.89698 1.294482 4.352121 1.929955 12.945847 5.656837 28.028357-0.254803 33.68417-13.202697 5.655813-12.94687-0.255827-28.028357-13.202697-33.68417-1.280156-0.558725-2.558265-1.125637-3.831258-1.698688-66.537416-29.948079-122.999358-78.069053-163.2859-139.16248-41.302685-62.635549-63.133899-135.582955-63.133899-210.957643 0-102.500489 39.916105-198.866257 112.394836-271.344988s168.844499-112.394836 271.344988-112.394836 198.866257 39.916105 271.344988 112.394836 112.394836 168.844499 112.394836 271.344988c0 76.847226-22.627347 150.986783-65.434292 214.405161-41.796942 61.922305-100.117209 110.010533-168.655188 139.066289-13.008268 5.514597-19.082614 20.529569-13.568017 33.537837 5.514597 13.009292 20.528546 19.080567 33.538861 13.56904 77.66894-32.926924 143.747915-87.405699 191.093223-157.548222 48.536436-71.906703 74.191746-155.944701 74.191746-243.031129 0-58.699913-11.501962-115.65816-34.187637-169.292708-21.905916-51.791573-53.261041-98.299817-93.193519-138.232295s-86.440721-71.287603-138.231271-93.192495C627.659183-143.869297 570.700937-155.371258 512-155.371258zM512 417.680213c-14.128789 0-25.582655 11.453866-25.582655 25.582655l0 286.525736c0 14.128789 11.453866 25.582655 25.582655 25.582655s25.582655-11.453866 25.582655-25.582655l0-286.525736C537.582655 429.135102 526.128789 417.680213 512 417.680213z"  horiz-adv-x="1024" />

    
    <glyph glyph-name="msnui-pc" unicode="&#59030;" d="M898.196 785.669h-771.82c-35.52 0-64.318-28.767-64.318-64.318v-514.515c0-35.522 28.798-64.319 64.318-64.319h321.592v-96.478h-160.797c-17.743 0-32.16-14.415-32.16-32.159v-32.155h514.548v32.155c0 17.744-14.415 32.159-32.16 32.159h-160.796v96.478h321.592c35.52 0 64.319 28.797 64.319 64.319v514.515c0 35.551-28.799 64.318-64.319 64.318zM480.127 206.83500000000004c0 17.744 14.414 32.158 32.159 32.158 17.743 0 32.158-14.414 32.158-32.158 0-17.777-14.415-32.192-32.158-32.192-17.743 0.001-32.159 14.415-32.159 32.192zM126.375 271.154v450.197h771.82v-450.197h-771.82z"  horiz-adv-x="1025" />

    
    <glyph glyph-name="edit" unicode="&#59038;" d="M34.155089 665.059773 9.17948 665.059773 9.17948 639.796614 9.17948 41.841988C9.17948-27.769568 65.248004-84.289737 134.081773-84.289737L927.938515-84.289737 952.914125-84.289737 952.914125-59.026579 952.914125 424.899439C952.914125 438.851895 941.732164 450.162598 927.938515 450.162598 914.144868 450.162598 902.962906 438.851895 902.962906 424.899439L902.962906-59.026579 927.938515-33.76342 134.081773-33.76342C92.797081-33.76342 59.130699 0.174153 59.130699 41.841988L59.130699 639.796614 34.155089 614.533457 598.93821 614.533457C612.731859 614.533457 623.91382 625.844158 623.91382 639.796614 623.91382 653.749072 612.731859 665.059773 598.93821 665.059773L34.155089 665.059773ZM437.016339 302.496211 431.876019 295.895108 431.668623 287.494786 427.984924 138.290259 427.077935 101.553579 461.312335 113.853545 605.005395 165.480553 611.980762 167.986709 616.479561 173.932757 1003.181673 685.035772 1018.529978 705.321579 998.306108 720.620695 869.49174 818.067219 849.985487 832.823464 834.913446 813.46823 437.016339 302.496211ZM839.575373 777.604982 968.389739 680.158458 963.514174 715.743381 576.81206 204.640367 588.286225 213.092572 444.593165 161.465564 477.920574 137.028849 481.604275 286.233378 476.256559 271.231953 874.153664 782.20397 839.575373 777.604982ZM891.217762 585.494287 920.474916 626.446748 808.309143 708.435734 779.051989 667.483275 891.217762 585.494287Z"  horiz-adv-x="1024" />

    
    <glyph glyph-name="email" unicode="&#59039;" d="M972.8-38.274509 998.4-12.54902 127.868001-12.54902C85.502225-12.54902 51.2 21.980294 51.2 64.736983L51.2 784.941177 25.6 759.215686 896.131998 759.215686C938.452011 759.215686 972.8 724.675722 972.8 682.139066L972.8 617.433306C972.8 603.22551 984.26151 591.707817 998.4 591.707817 1012.53849 591.707817 1024 603.22551 1024 617.433306L1024 682.139066C1024 753.083444 966.736828 810.666667 896.131998 810.666667L25.6 810.666667 0 810.666667 0 784.941177 0 64.736983C0-6.415639 57.205646-64 127.868001-64L998.4-64 1024-64 1024-38.274509 1024 438.30151C1024 452.509306 1012.53849 464.026999 998.4 464.026999 984.26151 464.026999 972.8 452.509306 972.8 438.30151L972.8-38.274509ZM512.651558 328.835183C520.64791 323.125502 531.187889 322.509594 539.788919 327.249399L1002.624789 582.306306C1015.021598 589.137867 1019.560139 604.774804 1012.761901 617.232381 1005.963665 629.689959 990.403006 634.250746 978.006197 627.419184L515.170327 372.362278 542.307689 370.776495 194.028065 619.460533C182.502788 627.689991 166.520953 624.972402 158.331639 613.390628 150.142325 601.808854 152.846657 585.748678 164.371935 577.519219L512.651558 328.835183Z"  horiz-adv-x="1024" />

    
    <glyph glyph-name="form" unicode="&#59042;" d="M835.55027 847.238095C876.805122 847.238095 910.222223 814.558842 910.222223 774.246396L910.222223 61.033572 917.178886 77.94089 755.401109-86.711731 773.333333-79.238095 188.412988-79.238095C147.247907-79.238095 113.777778-46.409011 113.777778-6.094615L113.777778 871.619048 88.888889 847.238095 835.55027 847.238095ZM64 896 64 871.619048 64-6.094615C64-73.325498 119.742117-128 188.412988-128L773.333333-128 783.922411-128 791.265557-120.526364 953.043334 44.126255 960 51.206543 960 61.033572 960 774.246396C960 841.50796 904.277615 896 835.55027 896L88.888889 896 64 896ZM736.080945 188.952382C694.76038 188.952382 661.333333 156.380621 661.333333 115.855814L661.333333-30.47619C661.333333-43.941419 672.476469-54.857143 686.222223-54.857143 699.967977-54.857143 711.11111-43.941419 711.11111-30.47619L711.11111 115.855814C711.11111 129.392139 722.192996 140.190477 736.080945 140.190477L848 140.190477C861.745754 140.190477 872.88889 151.106199 872.88889 164.571428 872.88889 178.036657 861.745754 188.952382 848 188.952382L736.080945 188.952382ZM775.164361 676.571428C788.910114 676.571428 800.05325 687.487153 800.05325 700.952381 800.05325 714.417609 788.910114 725.333333 775.164361 725.333333L263.111111 725.333333C249.365357 725.333333 238.222222 714.417609 238.222222 700.952381 238.222222 687.487153 249.365357 676.571428 263.111111 676.571428L775.164361 676.571428ZM775.164361 530.285715C788.910114 530.285715 800.05325 541.201438 800.05325 554.666667 800.05325 568.131895 788.910114 579.047618 775.164361 579.047618L263.111111 579.047618C249.365357 579.047618 238.222222 568.131895 238.222222 554.666667 238.222222 541.201438 249.365357 530.285715 263.111111 530.285715L775.164361 530.285715ZM775.164361 359.619049C788.910114 359.619049 800.05325 370.534771 800.05325 384 800.05325 397.465229 788.910114 408.380951 775.164361 408.380951L263.111111 408.380951C249.365357 408.380951 238.222222 397.465229 238.222222 384 238.222222 370.534771 249.365357 359.619049 263.111111 359.619049L775.164361 359.619049Z"  horiz-adv-x="1024" />

    
    <glyph glyph-name="atm" unicode="&#59066;" d="M786.731708 248C807.42218 248 824.195121 292.890916 824.195121 348.266667 824.195121 403.642417 807.42218 448.533333 786.731708 448.533333 766.041235 448.533333 749.268292 403.642417 749.268292 348.266667 749.268292 292.890916 766.041235 248 786.731708 248ZM462.048781 197.866667C482.739253 197.866667 499.512194 237.146219 499.512194 285.6 499.512194 334.053783 482.739253 373.333333 462.048781 373.333333 441.358308 373.333333 424.585365 334.053783 424.585365 285.6 424.585365 237.146219 441.358308 197.866667 462.048781 197.866667ZM0 323.2C0 73.186074 229.933961-128 512-128 794.066039-128 1024 73.186074 1024 323.2 1024 573.213926 794.066039 774.400001 512 774.400001 515.649685 774.400001 516.946722 773.816747 516.866057 773.875947 514.736119 775.439072 512.302005 777.571016 505.789668 783.527388 487.675081 800.095511 476.340222 809.396515 458.812092 820.606339 404.94781 855.054345 334.29571 874.666667 237.268292 874.666667 223.474645 874.666667 212.292683 863.443938 212.292683 849.6 212.292683 835.756062 223.474645 824.533333 237.268292 824.533333 325.013274 824.533333 386.336418 807.510637 431.969129 778.326995 444.078925 770.582377 494.717728 724.266667 512 724.266667 767.886246 724.266667 974.048781 543.879957 974.048781 323.2 974.048781 102.520045 767.886246-77.866667 512-77.866667 256.113754-77.866667 49.951219 102.520045 49.951219 323.2 49.951219 468.970155 140.536466 601.537705 284.745583 672.442882 297.132651 678.533393 302.254953 693.549039 296.186566 705.981267 290.11818 718.413495 275.157079 723.554473 262.770012 717.463962 102.138268 638.484055 0 489.009167 0 323.2Z"  horiz-adv-x="1024" />

    
    <glyph glyph-name="clock" unicode="&#59067;" d="M1024 384C1024 666.769792 794.769792 896 512 896 229.230208 896 0 666.769792 0 384 0 101.230208 229.230208-128 512-128 625.316262-128 733.09232-91.060258 821.44823-23.93747 832.170355-15.792017 834.259159-0.496821 826.113707 10.225303 817.968254 20.947428 802.67306 23.036233 791.950935 14.89078 712.006355-45.842033 614.569408-79.238095 512-79.238095 256.160663-79.238095 48.761905 128.160663 48.761905 384 48.761905 639.839337 256.160663 847.238095 512 847.238095 767.839337 847.238095 975.238095 639.839337 975.238095 384 975.238095 289.261734 946.765111 198.842236 894.355733 122.396286 886.741822 111.290398 889.572629 96.115004 900.678517 88.501092 911.784403 80.887181 926.959799 83.717988 934.573709 94.823876 992.505146 179.324474 1024 279.340297 1024 384ZM487.619049 286.47619C487.619049 273.010963 498.534771 262.095238 512 262.095238 525.465229 262.095238 536.380951 273.010963 536.380951 286.47619L536.380951 652.190477C536.380951 665.655703 525.465229 676.571428 512 676.571428 498.534771 676.571428 487.619049 665.655703 487.619049 652.190477L487.619049 286.47619ZM481.586633 424.435921C472.719716 434.569538 457.316742 435.596403 447.183125 426.729489 437.049508 417.862575 436.022643 402.459599 444.889559 392.325982L615.556226 197.278364C624.42314 187.144747 639.826114 186.117882 649.959731 194.984796 660.093348 203.851712 661.120213 219.254686 652.253299 229.388303L481.586633 424.435921Z"  horiz-adv-x="1024" />

    
    <glyph glyph-name="qiehuan" unicode="&#58927;" d="M618.688 746.688l0-213.376L64 533.312 64 448l896 0L618.688 746.688zM405.312 21.312000000000012l0 213.376L960 234.688 960 320 64 320 405.312 21.312000000000012z"  horiz-adv-x="1024" />

    
    <glyph glyph-name="liebiaomoshi" unicode="&#58923;" d="M872.802928 140.00594 872.864326 140.00594 872.864326 140.375354ZM349.405343 741.37741 155.596266 741.37741c-29.150924 0-52.873208-23.724331-52.873208-52.845579l0-193.823404c0-29.150924 23.722284-52.844555 52.873208-52.844555l193.810101 0c29.136597 0 52.859905 23.693632 52.859905 52.844555L402.266271 688.532855C402.265248 717.654103 378.541941 741.37741 349.405343 741.37741M351.851045 688.532855l0-193.823404c0-1.339508-1.106194-2.474354-2.445702-2.474354L155.596266 492.235097c-1.338485 0-2.503007 1.134847-2.503007 2.474354L153.093259 688.532855c0 1.38351 1.134847 2.474354 2.503007 2.474354l193.810101 0C350.774527 691.007209 351.851045 689.915341 351.851045 688.532855M349.405343 326.162734 155.596266 326.162734c-29.150924 0-52.873208-23.75196-52.873208-52.856835L102.723058 79.480448c0-29.164227 23.722284-52.857858 52.873208-52.857858l193.810101 0c29.136597 0 52.859905 23.693632 52.859905 52.857858L402.266271 273.305899C402.265248 302.410773 378.541941 326.162734 349.405343 326.162734M351.851045 273.305899 351.851045 79.480448c0-1.36816-1.106194-2.472308-2.445702-2.472308L155.596266 77.00814c-1.338485 0-2.503007 1.104147-2.503007 2.472308L153.093259 273.305899c0 1.367137 1.134847 2.474354 2.503007 2.474354l193.810101 0C350.774527 275.780253 351.851045 274.673036 351.851045 273.305899M519.857457 671.069111c0.727571-0.480954 1.601474-0.801249 2.532683-0.801249l1.77646 0c0.434905-0.058328 0.900509-0.058328 1.36816 0l367.768061 0c0.233314-0.029676 0.493234-0.058328 0.697895-0.058328 0.233314 0 0.466628 0.028653 0.670266 0.058328l1.454118 0c0.787946 0 1.514493 0.261966 2.124384 0.626263 12.023848 2.081405 20.900006 12.341073 20.900006 24.464181 0 11.949146-8.586562 22.064528-20.345374 24.348548-0.756223 0.566912-1.687432 0.931209-2.679016 0.931209L522.389116 720.638063c-0.901533 0-1.775436-0.422625-2.501984-1.019213-11.614525-2.357697-20.200064-12.458753-20.200064-24.261567C499.687068 683.525817 508.272607 673.425785 519.857457 671.069111M519.507486 484.506065c0.756223-0.683569 1.77646-1.134847 2.88163-1.134847l373.73496 0c0.903579 0 1.719154 0.39295 2.446725 0.932232 11.818163 2.196015 20.550035 12.369725 20.550035 24.405853 0 12.123109-8.847505 22.354124-20.784372 24.434505-0.668219 0.39295-1.425466 0.596588-2.212388 0.596588l-0.697895-0.115634c-0.581238 0.145309-1.456165 0.203638-2.297322 0.115634l-366.867552-0.115634c-0.611937 0.145309-1.457188 0.203638-2.300392 0.115634l-1.571798 0c-0.814552 0-1.542122-0.233314-2.213411-0.714268-11.786441-2.241041-20.459984-12.398378-20.459984-24.317848C499.715721 497.023146 508.040317 487.009072 519.507486 484.506065M519.537162 235.319749c0.756223-0.667196 1.775436-1.075495 2.851954-1.075495l373.73496 0c0.408299 0 0.787946 0.058328 1.196245 0.174985 13.271258 0.608867 23.954575 11.641131 23.954575 25.118074 0 13.827937-11.294231 25.118074-25.15082 25.118074-0.202615 0-0.435928-0.027629-0.697895-0.058328L525.50406 284.597059c-0.437975 0.058328-0.873903 0.058328-1.36816 0l-1.746784 0c-0.842181 0-1.600451-0.25992-2.270716-0.725524-11.729136-2.270716-20.402679-12.428054-20.402679-24.334221C499.715721 247.833761 508.097622 237.823779 519.537162 235.319749M897.755226 118.192122c-0.493234 0.203638-1.077541 0.319272-1.63115 0.319272L522.389116 118.511393c-0.959861 0-1.893116-0.462534-2.589988-1.1328-11.583826-2.416026-20.083407-12.485359-20.083407-24.275893 0-11.904121 8.674567-22.064528 20.402679-24.334221 0.669242-0.405229 1.428535-0.60989 2.270716-0.60989l0.728594 0.115634c0.290619-0.057305 0.726547-0.202615 2.620687-0.115634l368.639918 0.115634c0.466628-0.115634 1.340531-0.290619 1.74576-0.290619 13.856589 0 25.15082 11.291161 25.15082 25.119097C921.274896 106.434334 910.883221 117.320265 897.755226 118.192122"  horiz-adv-x="1024" />

    
    <glyph glyph-name="92" unicode="&#58998;" d="M532.252444 725.333333l-17.521778 0c-9.363911 0-16.952889 7.588978-16.952889 16.952889l0 0.568889c0 21.742933-17.624178 39.367111-39.367111 39.367111l-0.910222 0c-21.742933 0-39.367111-17.624178-39.367111-39.367111l0-0.568889c0-9.363911-7.588978-16.952889-16.952889-16.952889l-17.521778 0c-18.659556 0-33.792-15.132444-33.792-33.792l0-0.682667c0-18.659556 15.132444-33.792 33.792-33.792l148.593778 0c18.659556 0 33.792 15.132444 33.792 33.792l0 0.682667C566.044444 710.200889 550.912 725.333333 532.252444 725.333333zM457.955556 725.333333c-9.4208 0-17.066667 7.645867-17.066667 17.066667s7.645867 17.066667 17.066667 17.066667 17.066667-7.645867 17.066667-17.066667S467.376356 725.333333 457.955556 725.333333zM533.936356 65.42222200000003L247.466667 65.42222200000003c-25.133511 0-45.511111 20.3776-45.511111 45.511111L201.955556 657.066667c0 25.133511 20.3776 45.511111 34.133333 45.511111l92.205511 0c-0.773689-3.777422-1.183289-7.691378-1.183289-11.719111 0-31.175111 25.361067-56.547556 56.547556-56.547556l148.593778 0c31.186489 0 56.547556 25.361067 56.547556 57.230222 0 3.777422-0.4096 7.463822-1.115022 11.036444l69.381689 0c36.511289 0 56.888889-20.3776 56.888889-45.511111l0-341.9136C710.178133 315.39200000000005 706.423467 315.733333 702.577778 315.733333c-15.735467 0-30.936178-2.218667-45.511111-5.996089L657.066667 577.4222219999999l-398.222222 0 0-455.111111 262.269156 0C522.353778 102.30897800000002 526.722844 83.17155600000001 533.936356 65.42222200000003zM702.577778 281.6c-81.692444 0-147.911111-66.218667-147.911111-147.911111s66.218667-147.911111 147.911111-147.911111 147.911111 66.218667 147.911111 147.911111S784.270222 281.6 702.577778 281.6zM799.232 164.078933l-91.022222-102.4C703.726933 56.63857800000005 697.480533 54.044444 691.188622 54.044444c-4.994844 0-10.012444 1.6384-14.210844 4.983467l-56.888889 45.511111c-9.807644 7.839289-11.400533 22.163911-3.549867 31.982933 7.839289 9.819022 22.175289 11.411911 31.982933 3.549867l40.015644-32.005689 76.674844 86.254933c8.339911 9.386667 22.7328 10.24 32.119467 1.888711S807.583289 173.47697800000003 799.232 164.078933z"  horiz-adv-x="1024" />

    
    <glyph glyph-name="fuzhi" unicode="&#58890;" d="M677.321768 663.837406 174.238858 663.837406c-61.739133 0-111.796202-50.057069-111.796202-111.796202l0-503.08291c0-61.739133 50.057069-111.796202 111.796202-111.796202l503.08291 0c61.739133 0 111.796202 50.057069 111.796202 111.796202L789.11797 552.041204C789.11797 613.780337 739.060901 663.837406 677.321768 663.837406zM733.219869 48.958294c0-30.842449-25.055652-55.898101-55.898101-55.898101L174.238858-6.939807c-30.81482 0-55.898101 25.055652-55.898101 55.898101L118.340757 552.041204c0 30.842449 25.083282 55.898101 55.898101 55.898101l503.08291 0c30.842449 0 55.898101-25.055652 55.898101-55.898101L733.219869 48.958294zM230.136959 440.245002l391.286708 0 0 55.898101L230.136959 496.143103 230.136959 440.245002zM230.136959 328.449823l391.286708 0 0 55.898101L230.136959 384.347924 230.136959 328.449823zM230.136959 216.652598l391.286708 0 0 55.898101L230.136959 272.550699 230.136959 216.652598zM230.136959 104.856395l223.592404 0 0 55.898101-223.592404 0L230.136959 104.856395zM845.016071 831.53171 341.933161 831.53171c-61.739133 0-111.796202-50.057069-111.796202-111.796202l55.898101 0c0 30.842449 25.083282 55.898101 55.898101 55.898101l503.08291 0c30.842449 0 55.898101-25.055652 55.898101-55.898101l0-503.08291c0-30.842449-25.055652-55.898101-55.898101-55.898101l0-55.898101c61.739133 0 111.796202 50.057069 111.796202 111.796202L956.812273 719.735507C956.812273 781.47464 906.755204 831.53171 845.016071 831.53171z"  horiz-adv-x="1024" />

    
    <glyph glyph-name="pingjia" unicode="&#58928;" d="M357.151259 107.625462c-30.610158 33.374108-63.026452 56.836473-96.401584 69.778226-33.986045 13.150508-77.298504 15.307637-115.880217 5.767354-45.889143-11.346419-79.503728-37.44482-94.623078-73.495898-4.996804-11.906168 0.611937-25.588795 12.514012-30.585599 11.906168-4.996804 25.593911 0.611937 30.585599 12.514012 12.519128 29.789467 44.669362 41.742706 62.736856 46.210461 29.17753 7.198959 62.817698 5.685489 87.793532-3.987824 61.410652-23.808242 109.765963-90.849124 139.500171-142.901641 4.309142-7.546883 12.19781-11.799744 20.330024-11.799744 3.90596 0 7.893784 1.010003 11.555174 3.084245 11.212366 6.40078 15.119349 20.672832 8.718569 31.886221C403.172409 50.49837 380.694465 81.986525 357.151259 107.625462zM971.70803 109.675144c-15.119349 36.051077-48.739051 62.149479-94.626147 73.495898-38.581714 9.540284-81.919754 7.383154-115.906823-5.767354-33.343409-12.941753-65.765843-36.404118-96.376001-69.778226-23.543206-25.63996-46.02115-57.102532-66.827011-93.53121-6.40385-11.213389-2.49789-25.485441 8.715499-31.886221 3.666506-2.074242 7.623631-3.084245 11.56029-3.084245 8.127098 0 16.020882 4.252861 20.324908 11.799744 29.733185 52.05354 78.094636 119.094422 139.500171 142.901641 24.981974 9.673313 58.622142 11.187807 87.793532 3.987824 18.072611-4.466732 50.223868-16.420995 62.741973-46.210461 4.991688-11.901051 18.672268-17.510816 30.580482-12.514012C971.098139 84.086349 976.701764 97.768977 971.70803 109.675144zM851.02339 405.943778c13.885242 40.223097 14.146185 81.809237 14.432711 122.06201 0.025583 6.818289 0.085958 13.897521 0.197498 20.722974 0.176009 9.578146 0.346901 19.184945 0.51677 28.766161 0.807389 42.23901 1.612731 85.898369 1.727341 128.940674 0.029676 14.06739-5.834892 27.966958-16.124236 38.146808-10.148128 10.092869-23.459295 15.634072-37.399795 15.634072l-1.549286 0c-49.360198-1.452071-90.862427-14.951527-133.349077-32.692586-9.168824 26.097378-22.560832 50.345642-40.643676 73.452919-14.94948 19.131733-34.437323 38.261419-53.462632 52.503794-27.481911 20.577664-53.526077 31.039947-77.382415 31.039947-36.935214 0-77.525678-25.300222-124.092249-77.319993-20.002566-22.37152-35.729759-47.982828-46.856168-76.463486-39.291888 17.539468-76.166727 28.284183-122.68111 29.479405-0.428765 0.010233-0.856507 0.016373-1.283226 0.016373-29.078269 0-53.701063-24.576745-53.701063-53.715389 0-23.079648-0.893346-46.902216-1.86958-72.082712-3.079128-80.620156-6.29538-163.963329 19.603477-238.806921 20.928658-60.606333 61.627592-113.25339 117.710912-152.250566 51.737338-35.987632 113.88784-58.898435 179.706895-66.236564l0.949628-0.11461 22.23235-0.780783 0-291.178709c0-3.656273 2.963495-6.619768 6.618744-6.619768l26.474978 0c3.656273 0 6.618744 2.963495 6.618744 6.619768L537.418926 175.117622C679.979806 182.252113 805.873074 274.810159 851.02339 405.943778zM706.554044 275.526473c-24.750707-18.113543-51.994188-32.528857-80.974219-42.842761-29.504988-10.502192-60.273758-16.549931-91.461061-17.97949l-55.627948 1.953492c-59.109236 6.659677-114.76993 27.167756-161.000857 59.32413-49.117674 34.153868-84.680635 80.009242-102.852506 132.63174-23.429619 67.708078-20.394493 147.172921-17.45965 224.022193l0.010233 0.25992c0.890276 22.974247 1.898233 49.015344 1.898233 73.619718 0 7.196912 6.797823 14.001899 13.987572 14.001899 0.088004 0 0.176009-0.001023 0.264013-0.00307 37.058011-0.951675 68.206428-8.496511 107.512642-26.043143l38.025035-16.974603 15.153118 38.787398c9.345856 23.921829 22.626323 45.604664 39.455617 64.427358 37.535895 41.930995 70.214155 64.09376 94.502327 64.09376 14.855336 0 33.382295-7.993045 53.582359-23.118534 16.350386-12.239765 33.104979-28.702716 45.986357-45.187155 15.408945-19.689435 26.677593-40.015366 34.45165-62.141292l13.945617-39.695071 38.824237 16.211217c34.830273 14.544251 73.306586 28.190039 118.65747 29.625738l0.939395 0c3.463891 0 6.711865-1.411139 9.394974-4.079922l0.036839-0.036839 0.036839-0.034792c2.727111-2.697435 4.349051-6.373151 4.341888-9.810437-0.10847-41.157375-0.843204-82.448804-1.720178-128.288828l0-0.051165-0.034792-1.929955c-0.159636-8.933463-0.318248-17.886369-0.481977-26.812669l-0.001023-0.041956 0-0.040932c-0.106424-6.452969-0.173962-13.591553-0.203638-21.219277l0 0-0.001023-0.184195c-0.275269-38.627762-0.534166-75.112722-12.267395-109.101837-9.806343-28.481681-24.101931-55.346539-42.48972-79.846536C752.925165 314.963671 731.246423 293.598061 706.554044 275.526473z"  horiz-adv-x="1024" />

    
    <glyph glyph-name="1" unicode="&#58880;" d="M510.060835 833.567066c-246.885923 0-447.730231-200.847377-447.730231-447.739441 0-246.877737 200.845331-447.736371 447.730231-447.736371 246.924809 0 447.789583 200.858634 447.789583 447.736371C957.850417 632.719688 756.985644 833.567066 510.060835 833.567066zM707.9703 267.09443c10.914584-10.927887 10.914584-28.631084 0-39.558971l-39.584554-39.587624c-10.916631-10.927887-28.650527-10.927887-39.568181 0l-118.734218 118.733195L391.340943 187.94681200000002c-10.914584-10.927887-28.629038-10.927887-39.565111 0l-39.565111 39.587624c-10.936073 10.927887-10.936073 28.631084 0 39.558971l118.730125 118.729102L312.210721 504.55161c-10.936073 10.927887-10.936073 28.64541 0 39.573297l39.565111 39.573297c10.936073 10.930957 28.650527 10.930957 39.565111 0l118.742405-118.733195 118.734218 118.733195c10.916631 10.930957 28.650527 10.930957 39.568181 0l39.584554-39.573297c10.914584-10.927887 10.914584-28.64541 0-39.573297L589.231989 385.822508 707.9703 267.09443z"  horiz-adv-x="1024" />

    
    <glyph glyph-name="iconset0282" unicode="&#59061;" d="M533.333333 512l85.333333 0 0 85.333333-85.333333 0L533.333333 512zM554.666667 725.333333l-85.333333 0 0-85.333333 85.333333 0L554.666667 725.333333zM405.333333 512l85.333333 0 0 85.333333-85.333333 0L405.333333 512zM426.666667 725.333333l-85.333333 0 0-85.333333 85.333333 0L426.666667 725.333333zM512-85.333333l170.666667 170.666667L341.333333 85.333333 512-85.333333zM682.666667 725.333333l-85.333333 0 0-85.333333 85.333333 0L682.666667 725.333333zM320 384l384 0 0 85.333333L320 469.333333 320 384zM298.666667 725.333333l-85.333333 0 0-85.333333 85.333333 0L298.666667 725.333333zM661.333333 512l85.333333 0 0 85.333333-85.333333 0L661.333333 512zM725.333333 640l85.333333 0L810.666667 725.333333l-85.333333 0L725.333333 640zM853.333333 853.333333 170.666667 853.333333C123.733333 853.333333 85.333333 814.933333 85.333333 768l0-426.666667c0-46.933333 38.4-85.333333 85.333333-85.333333l682.666667 0c46.933333 0 85.333333 38.4 85.333333 85.333333L938.666667 768C938.666667 814.933333 900.266667 853.333333 853.333333 853.333333zM896 341.333333c0-23.466667-19.2-42.666667-42.666667-42.666667L170.666667 298.666667c-23.466667 0-42.666667 19.2-42.666667 42.666667L128 768c0 23.466667 19.2 42.666667 42.666667 42.666667l682.666667 0c23.466667 0 42.666667-19.2 42.666667-42.666667L896 341.333333zM362.666667 597.333333l-85.333333 0 0-85.333333 85.333333 0L362.666667 597.333333z"  horiz-adv-x="1024" />

    
    <glyph glyph-name="wangwang1" unicode="&#59100;" d="M510.975159-67.418226c-123.532501 0-242.645342 46.930869-326.796928 128.761596-76.988442 74.859965-116.572996 172.427094-116.572996 274.725992 0 83.711564 25.258267 163.991981 78.373998 232.162594 51.522444 66.12707 122.781394 116.253724 206.073402 144.958486 1.623987 0.558725 3.25002 1.108241 4.863774 1.65264 1.998517 0.672312 4.368494 1.471514 6.683213 2.297322-11.214413 22.059412-24.290219 43.518143-38.907125 63.83998l-37.730323 52.464909 63.335491-12.83226c73.661673-14.923898 142.275377-42.826388 204.040093-82.960457 108.308775-9.450233 208.653157-54.254671 283.180548-126.58707 77.153194-74.877361 116.827799-172.537611 116.827799-274.996145 0-163.144684-104.679108-309.277926-271.040043-372.294145C628.663558-56.92626800000005 570.684052-67.418226 510.975159-67.418226zM400.875598 755.056967c3.466961-6.314823 6.79987-12.684904 9.988492-19.09694 0.499373-1.003863 1.025353-1.967818 1.531889-2.902096 3.870144-7.153934 14.149255-26.158776-1.284249-45.025473-9.498328-11.610432-23.99346-16.495696-38.010709-21.219277-1.505283-0.505513-3.021823-1.01819-4.53427-1.538029C217.181903 613.100862 118.287545 480.803743 118.287545 336.06936099999996c0-88.493473 34.132378-173.152619 101.222379-238.389412 74.777077-72.715115 181.01161-114.416889 291.465235-114.416889 53.552683 0 105.494683 9.387811 154.379043 27.904537 146.476049 55.488779 238.310617 183.019337 238.310617 324.901765 0 182.166923-156.417469 336.596108-359.693152 351.573217l-6.643304 0.48914-5.545296 3.693112C491.266281 718.814532 447.426821 739.976504 400.875598 755.056967zM539.09459 457.379241l-56.239885-46.865377c0.468674-0.562818 46.532803-57.178257 18.562774-139.341558l0.13303-0.044002 77.139891 5.476735C600.752882 381.72519 541.836027 454.090335 539.09459 457.379241zM761.488703 298.508907c22.331611 105.361653-36.758182 177.932482-39.501666 181.227528l-56.238862-46.867424c0.467651-0.560772 46.532803-57.176211 18.561751-139.336442l1.224898-0.417509 64.911382 4.607948L761.488703 298.508907z"  horiz-adv-x="1024" />

    
    <glyph glyph-name="liebiaolist46" unicode="&#59251;" d="M916.48 771.84l-583.68 0c-24.03328 0-43.52-19.48672-43.52-43.52 0-24.03328 19.48672-43.52 43.52-43.52l583.68 0c24.03328 0 43.52 19.48672 43.52 43.52C960 752.35328 940.51328 771.84 916.48 771.84zM916.48 546.56l-583.68 0c-24.03328 0-43.52-19.48672-43.52-43.52 0-24.03328 19.48672-43.52 43.52-43.52l583.68 0c24.03328 0 43.52 19.48672 43.52 43.52C960 527.07328 940.51328 546.56 916.48 546.56zM916.48 321.28l-583.68 0c-24.03328 0-43.52-19.48672-43.52-43.52 0-24.03328 19.48672-43.52 43.52-43.52l583.68 0c24.03328 0 43.52 19.48672 43.52 43.52C960 301.79328 940.51328 321.28 916.48 321.28zM916.48 83.2l-583.68 0c-24.03328 0-43.52-19.48672-43.52-43.52 0-24.03328 19.48672-43.52 43.52-43.52l583.68 0c24.03328 0 43.52 19.48672 43.52 43.52C960 63.71328 940.51328 83.2 916.48 83.2zM105.80992 728.32m-43.52 0a4.25 4.25 0 1 0 87.04 0 4.25 4.25 0 1 0-87.04 0ZM105.80992 503.04m-43.52 0a4.25 4.25 0 1 0 87.04 0 4.25 4.25 0 1 0-87.04 0ZM105.80992 277.76m-43.52 0a4.25 4.25 0 1 0 87.04 0 4.25 4.25 0 1 0-87.04 0ZM105.80992 39.68m-43.52 0a4.25 4.25 0 1 0 87.04 0 4.25 4.25 0 1 0-87.04 0Z"  horiz-adv-x="1024" />

    
    <glyph glyph-name="sousuojilu" unicode="&#58924;" d="M667.034471 121.773693l0-59.267848c0-13.248745-10.011005-23.989367-22.36231-23.989367L152.729985 38.516478c-12.350283 0-22.361287 10.740622-22.361287 23.989367L130.368698 710.20955c0 13.249769 10.016121 23.989367 22.361287 23.989367l491.942175 0c12.350283 0 22.36231-10.740622 22.36231-23.989367l0-136.89074c11.549034-2.659573 22.760376-6.297426 33.539884-10.857279L700.574355 710.20955c0 33.121352-25.029046 59.971883-55.902194 59.971883L152.729985 770.181433c-30.873148 0-55.901171-26.851555-55.901171-59.971883l0-647.703705c0-33.125445 25.028023-59.97086 55.901171-59.97086l491.942175 0c30.873148 0 55.902194 26.845415 55.902194 59.97086l0 70.123081C689.794847 128.070096 678.583504 124.432243 667.034471 121.773693zM275.716041 506.301464l189.613522 0c12.081153 13.685697 25.702382 25.78834 40.573067 35.981493L275.716041 542.282956 275.716041 506.301464zM275.716041 242.419448 429.935448 242.419448c-5.476735 11.472286-10.080589 23.503297-13.727653 35.986609L275.716041 278.406057 275.716041 242.419448zM275.716041 374.360456l132.125203 0c1.328251 12.31549 3.546779 24.340361 6.607488 35.986609L275.716041 410.347065 275.716041 374.360456zM934.537967 104.611825 806.507012 222.356506c-1.831718 1.798972-3.599991 3.251044-5.325285 4.363378 63.704904 78.060867 58.976206 191.980429-14.413268 263.962857-78.792531 77.278037-206.877721 76.94137-286.085714-0.74292-79.209016-77.69043-79.545684-203.318662-0.753153-280.596699 75.196633-73.743538 195.281615-76.806293 274.93577-9.407254l124.552737-129.772622c9.648754-9.461489 25.331945-9.422603 35.027771 0.089028C944.147836 79.765951 944.188768 95.149313 934.537967 104.611825L934.537967 104.611825zM640.607588 180.525796c-92.90904 0-168.228469 75.317383-168.228469 168.228469 0 92.90904 75.319429 168.229492 168.228469 168.229492 92.913133 0 168.228469-75.319429 168.228469-168.229492C808.836057 255.843178 733.519698 180.525796 640.607588 180.525796L640.607588 180.525796zM640.607588 180.525796"  horiz-adv-x="1024" />

    
    <glyph glyph-name="tishi1" unicode="&#58966;" d="M512 896C230.4 896 0 665.6 0 384s230.4-512 512-512 512 230.4 512 512S793.6 896 512 896zM537.6 166.4c-12.8-6.4-19.2-12.8-32-12.8-12.8 0-25.6 6.4-32 12.8-6.4 6.4-12.8 19.2-12.8 32 0 12.8 6.4 25.6 12.8 32 6.4 6.4 19.2 12.8 32 12.8 12.8 0 25.6-6.4 32-12.8 6.4-6.4 12.8-19.2 12.8-32C550.4 185.6 550.4 172.8 537.6 166.4zM633.6 416C627.2 403.2 608 390.4 576 364.8 563.2 352 556.8 339.2 550.4 332.8c0-6.4-6.4-12.8-6.4-25.6 0-19.2-19.2-32-32-32-19.2 0-38.4 19.2-32 38.4 0 12.8 6.4 25.6 6.4 32 6.4 19.2 32 44.8 70.4 76.8l12.8 12.8c12.8 12.8 19.2 32 19.2 44.8 0 19.2-6.4 38.4-19.2 51.2C556.8 550.4 537.6 556.8 512 556.8c-32 0-51.2-6.4-64-25.6C441.6 524.8 435.2 512 435.2 492.8c0-19.2-19.2-32-32-32-19.2 0-38.4 19.2-32 44.8C377.6 537.6 390.4 556.8 403.2 576c25.6 25.6 64 38.4 108.8 38.4 44.8 0 76.8-12.8 102.4-32 25.6-25.6 38.4-51.2 38.4-89.6C652.8 460.8 646.4 435.2 633.6 416z"  horiz-adv-x="1024" />

    
    <glyph glyph-name="shangsheng" unicode="&#59216;" d="M752.64 519.68 546.56 693.12c-19.2 16-50.56 16-69.76 0L270.72 519.68C240 493.44 261.76 448.64 305.28 448.64L384 448.64C384 448.64 384 448 384 448l0-320c0-35.2 28.8-64 64-64l128 0c35.2 0 64 28.8 64 64L640 448c0 0 0 0.64 0 0.64l78.08 0C761.6 448.64 783.36 493.44 752.64 519.68z"  horiz-adv-x="1024" />

    
    <glyph glyph-name="xiajiang" unicode="&#59221;" d="M719.36 320.64l-77.44 0c0 0.64 0 0.64 0 1.28L641.92 640c0 35.2-28.8 64-64 64L448 704C412.8 704 384 675.2 384 640l0-318.08c0-0.64 0-0.64 0-1.28L305.92 320.64c-44.16 0-65.92-44.8-35.2-70.4l206.72-173.44c19.2-16 50.56-16 69.76 0l206.72 173.44C785.28 275.84 763.52 320.64 719.36 320.64z"  horiz-adv-x="1024" />

    
    <glyph glyph-name="xiaoxi" unicode="&#59304;" d="M832 768 192 768C121.344 768 64 710.656 64 640l0-384c0-70.656 57.344-128 128-128l127.808 0 0-65.408c0-24 13.44-45.568 34.944-56.192 8.896-4.288 18.368-6.464 27.776-6.464 13.504 0 26.88 4.416 38.08 12.992L570.048 128 832 128c70.656 0 128 57.344 128 128L960 640C960 710.656 902.656 768 832 768zM896 256c0-35.392-28.608-64-64-64l-272.576 0.064c-7.04 0-13.888-2.304-19.456-6.592l-156.224-122.944 0 97.536c0 17.664-14.336 31.936-31.936 31.936L192 192c-35.392 0-64 28.608-64 64L128 640c0 35.392 28.608 64 64 64l640 0c35.392 0 64-28.608 64-64L896 256zM320 512C284.608 512 256 483.392 256 448s28.608-64 64-64 64 28.608 64 64S355.392 512 320 512zM512 512C476.608 512 448 483.392 448 448s28.608-64 64-64 64 28.608 64 64S547.392 512 512 512zM704 512c-35.392 0-64-28.608-64-64s28.608-64 64-64 64 28.608 64 64S739.392 512 704 512z"  horiz-adv-x="1024" />

    
    <glyph glyph-name="tianjiajiahaowubiankuang" unicode="&#59418;" d="M864 448 512 448 512 800C512 817.92 497.92 832 480 832 462.08 832 448 817.92 448 800L448 448 96 448C78.08 448 64 433.92 64 416 64 398.08 78.08 384 96 384L448 384l0-352C448 14.08 462.08 0 480 0 497.92 0 512 14.08 512 32L512 384l352 0C881.92 384 896 398.08 896 416 896 433.92 881.92 448 864 448z"  horiz-adv-x="1024" />

    
    <glyph glyph-name="xiangqing" unicode="&#59082;" d="M992.809659 93.516225l-136.041547 88.647383c7.92169 22.514117 12.423909 46.684083 12.423909 71.939819 0 119.449813-96.61339 216.647383-215.349092 216.647383s-215.348085-97.19757-215.348085-216.647383c0-119.451827 96.611375-216.647383 215.348085-216.647383 70.114759 0 132.304806 34.056718 171.671524 86.352963l131.541343-85.776841c5.516477-3.572566 11.728935-5.294892 17.814485-5.294892 10.777124 0 21.300431 5.294892 27.575336 15.052721C1012.398844 63.160996 1008.025548 83.630481 992.809659 93.516225zM653.842928 103.529886c-82.53766 0-149.673098 67.540336-149.673098 150.574549s67.135438 150.574549 149.673098 150.574549c82.538667 0 149.674105-67.540336 149.674105-150.574549C803.580488 171.069214 736.381596 103.529886 653.842928 103.529886zM761.866976-0.871235l-0.063454 0c0-33.417141-27.005256-60.651034-60.223978-60.651034L143.332589-61.522269c-33.217714 0-60.223978 27.167417-60.223978 60.651034L83.108611 752.829436c0 33.417141 27.006264 60.586573 60.223978 60.586573l558.246955 0c33.219729 0 60.223978-27.169431 60.223978-60.586573l0-261.80051c24.08939-11.161877 46.21271-25.892292 65.674987-43.558717L827.478508 752.829436c0 69.832741-56.482201 126.719839-125.963426 126.719839L143.332589 879.549274c-69.416764 0-125.964433-56.823644-125.964433-126.719839l0-753.766139c0-69.831733 56.48623-126.721853 125.964433-126.721853l558.246955 0c69.416764 0 125.963426 56.824651 125.963426 126.721853l0 61.67335c-19.462277-17.666425-41.585597-32.39684-65.674987-43.558717L761.867983-0.871235zM611.623798 511.31107 191.06719 511.31107c-18.129741 0-32.837997-14.797897-32.837997-33.038431 0-18.238519 14.708256-33.034402 32.837997-33.034402l286.794372 0C514.314428 479.2315 560.46469 502.828365 611.623798 511.31107zM686.680925 644.856756c0 18.238519-14.707249 33.036417-32.837997 33.036417L191.06719 677.893173c-18.129741 0-32.837997-14.797897-32.837997-33.036417 0-18.240534 14.708256-33.036417 32.837997-33.036417l462.839193 0C672.038138 611.820339 686.680925 626.616222 686.680925 644.856756zM158.166746 311.69255c0-18.240534 14.707249-33.034402 32.837997-33.034402l204.888231 0c2.155425 23.022757 7.29017 45.215574 15.024519 66.070819L191.06719 344.728967C172.873995 344.728967 158.166746 329.933084 158.166746 311.69255z"  horiz-adv-x="1024" />

    
    <glyph glyph-name="jianpan" unicode="&#58915;" d="M937.818175 89.20288 86.180801 89.20288c-12.060687 0-21.837354 9.775644-21.837354 21.835308L64.343447 656.959765c0 12.060687 9.776667 21.838378 21.837354 21.838378l851.637374 0c12.059664 0 21.837354-9.777691 21.837354-21.838378l0-545.921577C959.65553 98.977501 949.877839 89.20288 937.818175 89.20288zM926.900521 646.042111 97.099479 646.042111 97.099479 121.957889l829.801043 0L926.900521 646.042111zM260.875542 482.266048 151.691841 482.266048 151.691841 591.449749 260.875542 591.449749 260.875542 482.266048zM337.305259 329.406614 228.120534 329.406614 228.120534 438.591339l109.184725 0L337.305259 329.406614zM741.287103 176.549228l-436.736852 0L304.550251 285.733952l436.736852 0L741.287103 176.549228zM686.694741 438.591339l109.184725 0 0-109.184725L686.694741 329.406614 686.694741 438.591339zM763.123434 591.449749l109.184725 0 0-109.183701L763.123434 482.266048 763.123434 591.449749zM610.266048 591.449749 719.449749 591.449749l0-109.183701L610.266048 482.266048 610.266048 591.449749zM643.021056 329.406614 533.836331 329.406614 533.836331 438.591339l109.184725 0L643.021056 329.406614zM457.407638 591.449749l109.184725 0 0-109.183701L457.407638 482.266048 457.407638 591.449749zM490.162646 329.406614 380.978944 329.406614 380.978944 438.591339l109.184725 0L490.163669 329.406614zM304.549228 591.449749l109.184725 0 0-109.183701L304.549228 482.266048 304.549228 591.449749z"  horiz-adv-x="1024" />

    
    <glyph glyph-name="tuikuan" unicode="&#58909;" d="M558.8-60c-116 0-225.8 44.4-309.2 125.2-8.4 8-8.6 21.4-0.4 29.8 8 8.4 21.4 8.6 29.8 0.4 75.4-73.2 174.8-113.4 279.8-113.4 221.6 0 402 180.4 402 402 0 221.6-180.4 402-402 402s-402-180.4-402-402c0-27.4 2.8-54.6 8.2-81 2.4-11.4-5-22.4-16.4-24.8-11.4-2.4-22.4 5-24.8 16.4-6 29.2-9 59.4-9 89.4 0 244.8 199.2 444 444 444s444-199.2 444-444S803.6-60 558.8-60zM150 255.2c-5.4 0-10.8 2-14.8 6.2l-107.8 107.8c-8.2 8.2-8.2 21.4 0 29.8s21.4 8.2 29.8 0L150 306l93 93c8.2 8.2 21.4 8.2 29.8 0s8.2-21.4 0-29.8l-107.8-107.8C160.8 257.2 155.4 255.2 150 255.2zM527.4 411.2c-7.4 0-14.4 3.8-18.2 10.6l-110.2 193.6c-5.8 10-2.2 23 7.8 28.6 10.2 5.8 23 2.2 28.6-7.8l110.2-193.6c5.8-10 2.2-23-7.8-28.6C534.4 412 530.8 411.2 527.4 411.2zM603.4 411.2c-3.6 0-7 0.8-10.4 2.8-10 5.8-13.6 18.6-7.8 28.6l110.2 193.6c5.8 10 18.6 13.6 28.6 7.8 10-5.8 13.6-18.6 7.8-28.6l-110.2-193.6C617.8 415 610.8 411.2 603.4 411.2zM713.8 411.2 404 411.2c-11.6 0-21 9.4-21 21 0 11.6 9.4 21 21 21l309.8 0c11.6 0 21-9.4 21-21C734.8 420.6 725.4 411.2 713.8 411.2zM687.6 284.4 430.2 284.4c-11.6 0-21 9.4-21 21 0 11.6 9.4 21 21 21l257.4 0c11.6 0 21-9.4 21-21C708.6 293.8 699.2 284.4 687.6 284.4zM558.8 108.4c-11.6 0-21 9.4-21 21L537.8 432.2c0 11.6 9.4 21 21 21 11.6 0 21-9.4 21-21l0-302.8C579.8 117.8 570.4 108.4 558.8 108.4z"  horiz-adv-x="1024" />

    
    <glyph glyph-name="arrow-down-thick" unicode="&#58892;" d="M64.303 424.85l447.695-450.159 447.699 450.158h-263.489v368.458h-368.415v-368.458z"  horiz-adv-x="1024" />

    
    <glyph glyph-name="weixuanzhongkuang" unicode="&#58976;" d="M865.777931 824.368566 158.222069 824.368566c-51.586912 0-93.406366-41.819454-93.406366-93.406366L64.815703 23.406339c0-51.586912 41.819454-93.406366 93.406366-93.406366l707.555861 0c51.586912 0 93.406366 41.819454 93.406366 93.406366L959.184297 730.9622C959.184297 782.549112 917.364843 824.368566 865.777931 824.368566zM897.785925 73.261816c0-45.212738-36.651758-81.864496-81.864496-81.864496l-607.843882 0c-45.212738 0-81.864496 36.651758-81.864496 81.864496L126.213052 681.105698c0 45.212738 36.651758 81.864496 81.864496 81.864496l607.843882 0c45.212738 0 81.864496-36.651758 81.864496-81.864496L897.785925 73.261816z"  horiz-adv-x="1024" />

    
    <glyph glyph-name="shouji" unicode="&#58979;" d="M848.8 4 848.8 763.2c0 18.4-3.6 35.6-11.2 51.6-7.2 16-17.2 30-30 42.4-12.8 12-28 21.6-45.2 28.4-17.2 6.8-35.6 10.4-55.6 10.4L316.8 896c-19.6 0-38.4-3.6-55.6-10.4-17.2-6.8-32.4-16.4-45.2-28.4-12.8-12-22.8-26-30-42.4-7.2-16-11.2-33.2-11.2-51.6L174.8 4c0-18.4 3.6-35.2 11.2-51.2 7.2-15.6 17.2-29.6 30-41.6 12.8-12 28-21.6 45.2-28.4 17.2-6.8 35.6-10.4 55.6-10.4l390 0c19.6 0 38.4 3.6 55.6 10.4 17.2 6.8 32.4 16.4 45.2 28.4 12.8 12 22.8 26 30 41.6C845.2-31.6 848.8-14.4 848.8 4L848.8 4zM430.8 817.6c4 3.2 8 4.8 11.6 4.8l139.6 0c4.4 0 8.4-1.6 12-4.8 3.6-3.2 5.6-8 5.6-13.6s-2-10.4-5.6-13.6c-3.6-3.2-7.6-4.8-12-4.8l-139.6 0c-4.4 0-8.4 1.6-12 4.8-3.6 3.2-5.6 8-5.6 13.6C424.4 809.6 426.8 814 430.8 817.6zM552-70.4c-11.2-11.2-24.4-17.2-40.8-17.2-15.6 0-28.8 5.6-40 17.2-11.2 11.2-17.2 24.8-17.2 40 0 16 5.6 29.6 17.2 40.8 11.2 11.2 24.8 16.4 40 16.4 16 0 29.6-5.6 40.8-16.4 11.2-11.2 16.4-24.4 16.4-40.8C568.4-45.6 563.2-58.8 552-70.4zM759.6 57.6 263.2 57.6 263.2 710.4l496.8 0L759.6 57.6z"  horiz-adv-x="1024" />

    
    <glyph glyph-name="top-copy" unicode="&#58884;" d="M959.697 343.15l-447.696 450.159-447.699-450.159h263.489v-368.458h368.416v368.458z"  horiz-adv-x="1024" />

    
    <glyph glyph-name="gaojing" unicode="&#58891;" d="M826.055742-13.495105999999964c0-27.832905-22.560832-50.409087-50.409087-50.409087L248.339018-63.904192999999964c-27.834952 0-50.395784 22.575158-50.395784 50.409087l0 0c0 27.848255 22.560832 50.42239 50.395784 50.42239l527.308661 0C803.495934 36.92728299999999 826.055742 14.35314900000003 826.055742-13.495105999999964L826.055742-13.495105999999964zM512 661.769304c-15.003715 0-27.145244 12.141528-27.145244 27.145244L484.854756 804.758949c0 15.003715 12.141528 27.145244 27.145244 27.145244 15.003715 0 27.145244-12.141528 27.145244-27.145244l0-115.845425C539.145244 673.909809 527.003715 661.769304 512 661.769304zM308.515562 587.78222c-7.740288 0-15.428388 3.28686-20.783349 9.701966l-74.437339 88.672552c-9.649777 11.478426-8.16496 28.603455 3.340071 38.226626 11.45182 9.67536 28.576849 8.191566 38.226626-3.340071l74.437339-88.672552c9.649777-11.478426 8.16496-28.603455-3.340071-38.226626C320.868915 589.875904 314.665633 587.78222 308.515562 587.78222zM200.358237 400.256242c-1.590218 0-3.181459 0.13303-4.771677 0.423649L81.490989 420.801161c-14.738679 2.598174-24.600281 16.673751-22.002107 31.44006 2.598174 14.791891 16.913205 24.706705 31.44006 22.002107l114.095571-20.120246c14.738679-2.598174 24.600281-16.673751 22.002107-31.44006C224.693482 409.507954 213.241662 400.256242 200.358237 400.256242zM715.431226 587.729008c-6.15007 0-12.353352 2.094708-17.443277 6.361895-11.505032 9.623171-12.989849 26.748201-3.340071 38.226626l74.437339 88.725764c9.596566 11.478426 26.721595 12.963243 38.226626 3.340071 11.505032-9.623171 12.989849-26.748201 3.340071-38.226626l-74.437339-88.725764C730.859613 591.0158670000001 723.171514 587.729008 715.431226 587.729008zM823.64074 400.256242c-12.883425 0-24.335245 9.251711-26.668383 22.426779-2.598174 14.765285 7.263427 28.841885 22.002107 31.44006l114.095571 20.120246c14.368242 2.730181 28.788673-7.18361 31.44006-22.002107 2.598174-14.765285-7.263427-28.841885-22.002107-31.44006l-114.095571-20.120246C826.822199 400.389272 825.231981 400.256242 823.64074 400.256242zM736.879724 351.400534c0 126.674051-100.685143 229.363851-224.880747 229.363851s-224.880747-102.6898-224.880747-229.363851l0-260.180717 449.76047 0L736.8787 351.400534z"  horiz-adv-x="1024" />

    
    <glyph glyph-name="z-alipay" unicode="&#59084;" d="M807.893592 815.550737L220.596675 815.550737c-76.004021 0-138.188292-62.185294-138.188292-138.188292l0-585.568553c0-76.001975 62.184271-138.186246 138.188292-138.186246L807.893592-46.392353999999955c76.001975 0 138.184199 62.184271 138.184199 138.186246l0 5.180999c0 0-224.554312 93.278453-338.559832 148.555407-76.002998-93.278453-174.460404-150.279678-276.373515-150.279678-171.006745 0-229.736335 150.279678-148.552338 248.735038 17.273409 20.730137 48.365544 41.459251 95.005794 53.547567 74.27361 18.999726 191.735859-10.360975 300.559357-46.636157 18.999726 36.275181 36.270065 76.001975 48.363498 119.187543L287.960922 470.084611l0 34.544771 174.463474 0 0 58.729589L251.689834 563.358971l0 34.547841L462.42542 597.9068110000001l0 88.095407c0 0 0 15.544021 15.542998 15.544021l84.640726 0 0-101.913111L771.617387 599.633129l0-34.545794L562.609143 565.0873349999999l0-60.46 171.005722 0c-17.274432-65.637929-41.453111-127.824247-72.545246-181.368744 51.819203-18.998703 98.455359-36.275181 133.005246-48.367591 124.366496-41.454134 152.002926-44.909839 152.002926-44.909839l0 1.725294L946.077791 677.362444C946.077791 753.365442 883.89659 815.550737 807.893592 815.550737zM293.142945 347.441363c-22.452361-1.730411-62.185294-12.091386-84.637656-31.091112-67.36834-58.735729-27.6395-164.100452 107.095133-164.100452 77.731362 0 155.460678 50.095955 219.37229 129.550565C446.876282 324.984908 372.603695 356.07806700000003 293.142945 347.441363z"  horiz-adv-x="1024" />

    
    <glyph glyph-name="duigou" unicode="&#58957;" d="M49.588224 12.183551999999963M1139.531776 12.183551999999963M86.939648 33.02297599999997M538.459136-64.38195199999996c109.876224 153.544704 223.55968 289.842176 308.03968 385.787904 49.87392 56.639488 96.715776 108.155904 141.549568 154.500096 40.576 41.945088 80.805888 80.405504 119.478272 116.59264 65.92 61.693952 142.984192 130.034688 191.446016 159.30368l-61.891584 82.050048c-89.732096-56.139776-176.10752-116.103168-242.799616-162.18112-38.863872-26.855424-74.928128-52.667392-108.915712-77.252608-33.668096-24.356864-68.429824-51.106816-105.081856-79.166464-63.633408-48.712704-145.388544-114.194432-224.555008-181.860352L357.07904 521.010176 123.885568 337.229824 538.459136-64.38195199999996zM1335.92064 33.02297599999997"  horiz-adv-x="1336" />

    
    <glyph glyph-name="kuaididandayin" unicode="&#58898;" d="M761.900583 496.000863l55.216579 0 0-55.207369-55.216579 0 0 55.207369ZM568.661488 496.000863l138.031726 0 0-55.207369-138.031726 0 0 55.207369ZM375.418298 109.518578l276.058336 0 0-55.206346-276.058336 0 0 55.206346ZM375.418298 247.545188l276.058336 0 0-55.206346-276.058336 0 0 55.206346ZM817.117163 634.028497l-82.820264 0L734.296899 827.275779 292.607244 827.275779l0-193.248306-82.824357 0c-76.111468 0-138.0174-61.917188-138.0174-138.02661l0-220.853014c0-78.366835 92.001367-138.02661 138.0174-138.02661l55.207369 0 0-193.238073 496.910327 0L761.900583 137.12124l55.216579 0c62.972217 0 138.02661 23.938202 138.02661 138.02661L955.143773 496.000863C955.143773 572.111309 893.218398 634.028497 817.117163 634.028497zM347.814614 772.058177l331.274916 0 0-138.030703-331.274916 0L347.814614 772.058177zM706.693214-0.904347 320.211952-0.904347 320.211952 302.766884l386.481262 0L706.693214-0.904347zM899.92617 275.148873c0-60.3546-22.449291-82.809007-82.809007-82.809007l-55.216579 0L761.900583 302.766884l55.216579 0 0 55.207369L209.782887 357.974253l0-55.207369 55.207369 0 0-110.427018-55.207369 0c-19.677155 0-82.790588 38.20002-82.790588 82.809007L126.992299 496.000863c0 45.672202 37.119409 82.819241 82.790588 82.819241l607.334275 0c45.661969 0 82.809007-37.147038 82.809007-82.819241L899.92617 275.148873z"  horiz-adv-x="1024" />

    
    <glyph glyph-name="sybz" unicode="&#58930;" d="M512.281409 1.2159440000000359c-51.581796 0-101.636818 10.109242-148.774395 30.046317-45.514613 19.250436-86.384439 46.803979-121.473609 81.893148-35.090193 35.090193-62.642712 75.958996-81.893148 121.473609-19.938098 47.137577-30.04734 97.192599-30.04734 148.774395s10.109242 101.636818 30.04734 148.774395c19.250436 45.514613 46.803979 86.384439 81.893148 121.473609 35.08917 35.090193 75.958996 62.642712 121.473609 81.893148 47.137577 19.938098 97.192599 30.04734 148.774395 30.04734 51.581796 0 101.636818-10.109242 148.774395-30.04734 45.515636-19.250436 86.384439-46.803979 121.474632-81.893148 35.08917-35.08917 62.642712-75.958996 81.893148-121.473609 19.937075-47.137577 30.046317-97.192599 30.046317-148.774395s-10.109242-101.636818-30.046317-148.774395c-19.250436-45.514613-46.803979-86.383416-81.893148-121.473609-35.090193-35.08917-75.958996-62.642712-121.474632-81.893148C613.918227 11.32518600000003 563.863205 1.2159440000000359 512.281409 1.2159440000000359zM512.281409 704.194556c-85.685521 0-166.243255-33.367969-226.833215-93.956905s-93.956905-141.146671-93.956905-226.833215c0-85.686545 33.367969-166.243255 93.956905-226.832192s141.146671-93.956905 226.833215-93.956905 166.243255 33.367969 226.833215 93.956905c60.588937 60.588937 93.956905 141.146671 93.956905 226.832192 0 85.685521-33.367969 166.243255-93.956905 226.833215C678.524664 670.826588 597.967954 704.194556 512.281409 704.194556zM617.029078 569.970552c-23.624047 26.691919-58.259892 40.228213-102.947673 40.232306-39.104623 0-70.976518-12.357446-94.729501-36.728506-40.809451-41.86448-40.441061-102.427834-40.264029-109.22054 0.447185-16.207124 13.669324-28.833699 29.971615-28.345582 16.009625 0.433882 28.730345 13.780865 28.390607 29.792537-0.00921 1.046842-0.12382 42.708707 23.806195 67.156516 12.343119 12.609179 30.114878 19.002796 52.825113 19.002796 27.228131 0 47.15395-6.91141 59.21873-20.539802 10.660804-12.048407 15.632025-30.468942 13.301957-49.27117-3.790326-30.53955-21.192671-46.981011-43.22957-67.799152-27.0204-25.535583-60.647265-57.314357-60.647265-118.689193 0-16.087397 13.093203-29.17446 29.187763-29.17446 16.095583 0 29.190833 13.087063 29.190833 29.17446 0 36.257785 17.775852 53.05331 42.386366 76.304873 24.361851 23.019273 54.679343 51.668777 61.045331 103.007025C646.63128 491.755166 648.14168 534.813844 617.029078 569.970552zM512.281409 192.47187199999996m-44.428885 0a43.417 43.417 0 1 1 88.85777 0 43.417 43.417 0 1 1-88.85777 0Z"  horiz-adv-x="1024" />

    
    <glyph glyph-name="dadanfahuo50" unicode="&#58950;" d="M821.08416 305.90976l0 40.96c45.17888 0 81.92 36.74112 81.92 81.92l0 121.61024c0 45.17888-36.74112 81.92-81.92 81.92l-614.4 0c-45.17888 0-81.92-36.74112-81.92-81.92l0-121.61024c0-45.17888 36.74112-81.92 81.92-81.92l0-40.96c-67.76832 0-122.88 55.11168-122.88 122.88l0 121.61024c0 67.76832 55.11168 122.88 122.88 122.88l614.4 0c67.76832 0 122.88-55.11168 122.88-122.88l0-121.61024C943.96416 361.04192 888.832 305.90976 821.08416 305.90976zM728.90368 653.43488l-40.96 0L687.94368 714.24c0 30.22848-12.36992 40.96-81.92 40.96l-184.27904 0c-69.55008 0-81.92-10.73152-81.92-40.96l0-60.80512-40.96 0L298.86464 714.24c0 81.92 79.93344 81.92 122.88 81.92l184.27904 0c42.94656 0 122.88 0 122.88-81.92L728.90368 653.43488zM808.96 492.78976c-28.24192 0-51.2 22.97856-51.2 51.2s22.95808 51.2 51.2 51.2 51.2-22.97856 51.2-51.2S837.20192 492.78976 808.96 492.78976zM808.96 574.70976c-16.93696 0-30.72-13.78304-30.72-30.72s13.78304-30.72 30.72-30.72 30.72 13.78304 30.72 30.72S825.89696 574.70976 808.96 574.70976zM759.64416-38.5024l-491.52 0c-45.17888 0-81.92 36.74112-81.92 81.92l0 368.64c0 45.17888 36.74112 81.92 81.92 81.92l491.52 0c45.17888 0 81.92-36.74112 81.92-81.92l0-368.64C841.56416-1.76128 804.82304-38.5024 759.64416-38.5024zM268.12416 453.0176c-22.58944 0-40.96-18.37056-40.96-40.96l0-368.64c0-22.58944 18.37056-40.96 40.96-40.96l491.52 0c22.58944 0 40.96 18.37056 40.96 40.96l0 368.64c0 22.58944-18.37056 40.96-40.96 40.96L268.12416 453.0176zM512 281.6l-184.32 0c-5.65248 0-10.24 4.58752-10.24 10.24S322.02752 302.08 327.68 302.08l184.32 0c5.65248 0 10.24-4.58752 10.24-10.24S517.65248 281.6 512 281.6zM696.32 138.24 327.68 138.24c-5.65248 0-10.24 4.58752-10.24 10.24S322.02752 158.72 327.68 158.72l368.64 0c5.65248 0 10.24-4.58752 10.24-10.24S701.97248 138.24 696.32 138.24z"  horiz-adv-x="1024" />

    
    <glyph glyph-name="remind" unicode="&#58926;" d="M214.181 438.306c19.094 0 34.59 15.496 34.59 34.59 0 122.448 71.809 218.885 191.905 257.764 16.326 5.258 26.288 21.861 23.383 38.741-0.415 2.767-0.692 5.396-0.692 8.025 0 27.257 25.043 49.394 55.897 49.394 30.854 0 55.897-22.138 55.897-49.394 0-2.629-0.277-5.258-0.692-7.748-3.044-17.157 7.195-33.898 23.936-39.017 122.033-37.357 191.905-131.165 191.905-257.626 0-19.094 15.496-34.59 34.59-34.59s34.59 15.496 34.59 34.59c0 147.63-80.11 263.714-215.703 315.183-5.673 60.325-59.356 107.782-124.524 107.782-65.444 0-119.266-47.734-124.662-108.336-133.379-53.407-215.011-171.704-215.011-314.768 0-19.094 15.496-34.59 34.59-34.59v0zM859.905 300.5v61.847c0 19.094-15.496 34.59-34.59 34.59s-34.59-15.496-34.59-34.59v-75.268c0-8.578 3.182-17.018 9.132-23.383 44.413-48.426 95.607-110.134 105.292-129.366-0.415-12.037-3.736-14.943-36.112-14.943h-698.855c-29.886 0-35.005 8.025-35.974 15.22 10.1 19.647 61.293 80.94 105.707 129.090 5.811 6.365 9.132 14.666 9.132 23.383v75.268c0 19.094-15.496 34.59-34.59 34.59s-34.59-15.496-34.59-34.59v-61.847c-114.977-126.184-114.977-149.982-114.977-161.604 0-42.892 27.672-88.689 105.292-88.689h698.855c26.012 0 105.292 0 105.292 88.689 0 11.622 0 35.558-114.423 161.604v0zM618.329 18.523c-16.742 9.132-37.772 2.906-46.904-13.974-10.239-18.955-30.162-30.716-51.885-30.716-21.584 0-41.508 11.761-51.885 30.854-9.132 16.742-30.162 22.968-46.904 13.836-16.742-9.132-22.968-30.162-13.836-46.904 22.414-41.231 65.582-66.966 112.625-66.966 47.042 0 90.349 25.597 112.625 66.966 9.132 16.88 2.906 37.911-13.836 46.904v0z"  horiz-adv-x="1024" />

    
    <glyph glyph-name="inquiry" unicode="&#58912;" d="M448 0h-213.333c-59.733 0-106.667 46.933-106.667 106.667v554.667c0 59.733 46.933 106.667 106.667 106.667h469.333c59.733 0 106.667-46.933 106.667-106.667v-128c0-12.8-8.533-21.333-21.333-21.333s-21.333 8.533-21.333 21.333v128c0 34.133-29.867 64-64 64h-469.333c-34.133 0-64-29.867-64-64v-554.667c0-34.133 29.867-64 64-64h213.333c12.8 0 21.333-8.533 21.333-21.333s-8.533-21.333-21.333-21.333zM708.267 341.333c81.067 0 149.333-68.267 149.333-149.333s-68.267-149.333-149.333-149.333-149.333 68.267-149.333 149.333 68.267 149.333 149.333 149.333M708.267 384c-106.667 0-192-85.333-192-192s85.333-192 192-192 192 85.333 192 192-85.333 192-192 192v0zM644.267 221.867c-4.267 0-12.8 4.267-17.067 8.533-8.533 8.533-8.533 21.333 0 29.867 25.6 25.6 51.2 34.133 81.067 34.133 25.6 0 55.467-8.533 72.533-25.6 8.533-8.533 8.533-21.333 0-29.867s-21.333-8.533-29.867 0c-12.8 12.8-25.6 17.067-42.667 17.067s-34.133-8.533-46.933-25.6c-4.267-4.267-12.8-8.533-17.067-8.533zM904.533-38.4l-89.6 89.6c-8.533 8.533-8.533 21.333 0 29.867v0c8.533 8.533 21.333 8.533 29.867 0l89.6-89.6c8.533-8.533 8.533-21.333 0-29.867v0c-8.533-8.533-21.333-8.533-29.867 0zM618.667 554.667h-298.667c-12.8 0-21.333 8.533-21.333 21.333v0c0 12.8 8.533 21.333 21.333 21.333h298.667c12.8 0 21.333-8.533 21.333-21.333v0c0-12.8-8.533-21.333-21.333-21.333zM618.667 426.667h-298.667c-12.8 0-21.333 8.533-21.333 21.333v0c0 12.8 8.533 21.333 21.333 21.333h298.667c12.8 0 21.333-8.533 21.333-21.333v0c0-12.8-8.533-21.333-21.333-21.333zM588.8 187.733c0-11.782 9.551-21.333 21.333-21.333s21.333 9.551 21.333 21.333c0 11.782-9.551 21.333-21.333 21.333-11.782 0-21.333-9.551-21.333-21.333z"  horiz-adv-x="1024" />

    
    <glyph glyph-name="pingjia-copy" unicode="&#58908;" d="M534.741 138.33l-56.683 2.016-0.912 0.11c-63.258 7.129-122.98 29.392-172.702 64.363-53.894 37.901-93.008 89.060-113.118 147.953-24.89 72.732-21.797 153.725-18.84 232.066 0.939 24.473 1.795 47.623 1.795 70.052 0 28.729 24.365 52.9 52.845 52.181 44.693-1.16 80.136-11.602 117.896-28.646 10.691 27.68 25.801 52.567 45.026 74.308 44.75 50.55 83.755 75.136 119.25 75.136 22.929 0 47.955-10.165 74.364-30.165 18.288-13.839 37.014-32.43 51.379-51.020 17.377-22.458 30.249-46.021 39.060-71.379 40.827 17.237 80.717 30.358 128.147 31.767 0.496 0 0.997 0 1.491 0 13.398 0 26.187-5.386 35.938-15.193 9.89-9.89 15.526-23.398 15.496-37.071-0.109-41.824-0.882-84.252-1.656-125.301-0.167-9.309-0.332-18.647-0.498-27.954-0.111-6.631-0.165-13.508-0.194-20.138-0.276-39.114-0.525-79.528-13.867-118.617-43.588-128.006-165.465-218.197-303.223-224.412l-0.996-0.055zM481.677 188.826l52.817-1.879c117.565 5.718 221.348 82.567 258.445 191.515 10.802 31.629 11.049 68.063 11.298 103.283 0.029 6.77 0.084 13.757 0.194 20.635 0.167 9.365 0.333 18.701 0.526 28.039 0.746 40.854 1.52 83.092 1.631 124.526 0 0.664-0.414 1.741-1.327 2.653-0.662 0.663-1.269 0.911-1.518 0.911-48.535-1.437-88.423-17.679-135.52-38.784l-27.265-12.209-6.409 29.198c-6.41 29.227-18.838 55.495-37.982 80.273-23.343 30.193-61.852 62.291-87.264 62.291-11.517 0-37.622-7.624-82.841-58.728-20.414-23.065-35.054-50.744-43.479-82.263l-7.707-28.868-26.684 13.425c-43.12 21.685-77.015 34.475-122.732 35.662v0c-1.049 0-2.955-1.879-2.955-3.62 0-23.369-0.911-46.932-1.852-71.903-2.79-73.893-5.691-150.328 16.243-214.523 32.758-95.826 128.612-166.267 244.382-179.637v0zM401.346-19.123c-8.452 0-16.657 4.419-21.131 12.266-30.91 54.114-81.185 123.806-145.023 148.56-25.967 10.055-60.939 11.628-91.269 4.142-18.783-4.641-52.207-17.070-65.219-48.036-5.192-12.376-19.419-18.206-31.794-13.013-12.377 5.196-18.204 19.42-13.011 31.796 15.718 37.482 50.662 64.611 98.367 76.406 40.109 9.917 85.136 7.677 120.467-5.994 34.696-13.453 68.396-37.844 100.218-72.541 24.472-26.656 47.843-59.391 69.473-97.233 6.657-11.659 2.597-26.495-9.061-33.15-3.809-2.156-7.955-3.204-12.016-3.204v0zM624.379-19.123c-4.087 0-8.204 1.048-12.014 3.204-11.66 6.656-15.72 21.492-9.062 33.15 21.63 37.87 44.999 70.576 69.472 97.233 31.824 34.695 65.525 59.088 100.192 72.541 35.332 13.672 80.384 15.911 120.495 5.994 47.705-11.796 82.65-38.924 98.368-76.406 5.191-12.376-0.637-26.601-13.012-31.796-12.376-5.194-26.601 0.637-31.794 13.013-13.011 30.966-46.435 43.396-65.22 48.036-30.33 7.486-65.301 5.913-91.268-4.142-63.837-24.753-114.112-94.446-145.022-148.56-4.478-7.848-12.682-12.266-21.135-12.266v0zM512.863-59.869c-13.424 0-24.308 10.856-24.308 24.281v198.225c0 13.425 10.884 24.281 24.308 24.281 13.425 0 24.309-10.856 24.309-24.281v-198.225c0-13.425-10.884-24.281-24.309-24.281v0z"  horiz-adv-x="1026" />

    
    <glyph glyph-name="buoumaotubiao14" unicode="&#58916;" d="M313.836392 548.796012c-36.407342 0-66.062271-29.631724-66.062271-66.062271s29.631724-66.062271 66.062271-66.062271c36.430546 0 66.085475 29.631724 66.085475 66.062271S350.266939 548.796012 313.836392 548.796012L313.836392 548.796012 313.836392 548.796012zM512.023204 548.796012c-36.407342 0-66.062271-29.631724-66.062271-66.062271s29.631724-66.062271 66.062271-66.062271 66.062271 29.631724 66.062271 66.062271S548.430546 548.796012 512.023204 548.796012L512.023204 548.796012 512.023204 548.796012zM710.186812 548.796012c-36.407342 0-66.085475-29.631724-66.085475-66.062271s29.654929-66.062271 66.085475-66.062271c36.384138 0 66.039066 29.631724 66.039066 66.062271S746.570949 548.796012 710.186812 548.796012L710.186812 548.796012 710.186812 548.796012zM512.023204 20.390664c-12.831906 0-23.204169 10.395468-23.204169 23.204169s10.372264 23.204169 23.204169 23.204169c255.315477 0 463.039202 174.704192 463.039202 389.435577S767.338681 845.670156 512.023204 845.670156c-255.338681 0-463.085611-174.704192-463.085611-389.435577 0-130.314616 77.107455-251.440381 206.285067-324.069431 11.161206-6.28833 15.129119-20.419669 8.863993-31.604079-6.28833-11.138001-20.419669-15.152323-31.604079-8.840789C88.477498 172.656424 2.529254 308.934512 2.529254 456.23458c0 240.325584 228.56107 435.843916 509.49395 435.843916 280.909676 0 509.447541-195.518332 509.447541-435.843916S792.93288 20.390664 512.023204 20.390664zM261.255744-128.023204l37.985225 196.748153c2.413234 12.57666 14.340177 20.860548 27.172082 18.377702 12.57666-2.413234 20.81414-14.595423 18.377702-27.172082l-18.679356-96.877408 174.309721 100.752504c11.068389 6.450759 25.269341 2.622071 31.696896-8.469522 6.404351-11.091593 2.598867-25.292545-8.492726-31.696896L261.255744-128.023204z"  horiz-adv-x="1024" />

    
    <glyph glyph-name="warning" unicode="&#58921;" d="M959.256 384c0 247.013-200.243 447.256-447.256 447.256s-447.256-200.243-447.256-447.256c0-247.013 200.243-447.256 447.256-447.256 247.013 0 447.256 200.243 447.256 447.256v0 0 0 0 0zM117.362 384c0 217.953 176.685 394.638 394.638 394.638s394.638-176.685 394.638-394.638c0-217.953-176.685-394.638-394.638-394.638-217.953 0-394.638 176.685-394.638 394.638v0 0 0 0 0zM484.458 296.44c0-23.021 10.551-34.531 31.653-34.531 21.102 0 31.653 11.51 31.653 34.531v319.41c0 23.021-10.551 34.531-31.653 34.531-21.102 0-31.653-11.51-31.653-34.531v-319.41zM478.702 155.439c1.918-23.021 14.388-34.531 37.408-34.531 23.021 0 35.49 11.51 37.408 34.531-1.918 23.021-14.388 35.49-37.408 37.408-23.021-1.918-35.49-14.388-37.408-37.408v0z"  horiz-adv-x="1024" />

    
    <glyph glyph-name="yunongtongcaozuoshibai" unicode="&#58925;" d="M-589.328-64M960.032 384c0-247.04-200.992-448-448.032-448C264.976-64 63.968 136.96 63.968 384S264.976 832 512 832c88.128 0 173.424-25.552 246.656-73.904 14.752-9.76 18.816-29.632 9.056-44.336-9.744-14.752-29.616-18.848-44.352-9.072-62.72 41.44-135.824 63.36-211.36 63.36C300.256 768.032 127.968 595.744 127.968 384c0-211.76 172.288-384.016 384.032-384.016S896.032 172.24 896.032 384c0 13.344-0.704 26.816-2.08 40.016-1.808 17.584 10.976 33.28 28.56 35.072 17.568 1.84 33.296-10.944 35.088-28.512C959.216 415.248 960.032 399.584 960.032 384zM285.728 157.712c16.272-16.288 42.672-16.288 58.944 0L512 325.056l167.344-167.344c16.256-16.272 42.656-16.288 58.944 0.016 16.288 16.272 16.288 42.656 0 58.944L570.944 384l167.328 167.328c16.272 16.272 16.288 42.656 0.016 58.944-16.304 16.288-42.688 16.288-58.976 0L512 442.944 344.672 610.272c-16.272 16.288-42.656 16.288-58.944 0.016-16.288-16.304-16.288-42.688 0-58.96L453.056 384 285.712 216.656C269.44 200.384 269.44 174 285.728 157.712z"  horiz-adv-x="1024" />

    
    <glyph glyph-name="jiantou1-copy" unicode="&#59301;" d="M78.443 345.968h733.558l-187.319-180.328c-4.795-4.796-4.795-12.57 0-17.367l37.627-37.627c4.796-4.795 12.57-4.795 17.367 0l235.807 227.011c0.272 0.229 0.541 0.465 0.797 0.721l1.259 1.259 36.367 35.009c2.567 2.568 3.746 5.99 3.564 9.352 0.188 3.369-0.991 6.8-3.562 9.372l-37.627 36.267c-0.243 0.241-0.496 0.463-0.752 0.68l-235.852 227.050c-4.796 4.797-12.57 4.797-17.367 0l-37.627-37.627c-4.795-4.795-4.795-12.569 0-17.367l185.562-178.637h-731.8c-6.783 0-12.28-5.498-12.28-12.28v-53.213c0-6.781 5.497-12.28 12.28-12.28z"  horiz-adv-x="1024" />

    
    <glyph glyph-name="shouji2" unicode="&#59014;" d="M715.525881 829.138196L308.474119 829.138196c-40.377616 0-73.17151-32.79287-73.17151-73.116251l0-743.988632c0-40.322357 32.793894-73.170486 73.17151-73.170486l407.052786 0c40.376593 0 73.170486 32.848129 73.170486 73.170486L788.697391 756.021945C788.696368 796.345326 755.902474 829.138196 715.525881 829.138196zM308.474119 778.611429l407.052786 0c12.495592 0 22.644743-10.149151 22.644743-22.589484l0-601.793072L285.829376 154.22887300000002 285.829376 756.021945C285.829376 768.462279 295.978527 778.611429 308.474119 778.611429zM444.175777 56.44889599999999c0 38.631856 31.266098 69.842695 69.842695 69.842695 38.576597 0 69.842695-31.210839 69.842695-69.842695 0-33.666774-24.335245-60.45693-56.092529-67.060325l-27.500331 0C468.512045-4.00803499999995 444.175777 22.78212199999996 444.175777 56.44889599999999z"  horiz-adv-x="1024" />

    
    <glyph glyph-name="biaoji" unicode="&#58937;" d="M947.332876 574.024891 702.019775 819.340039c-15.163351 15.155165-39.759539 15.163351-54.933123 0-3.295046-3.295046-74.008574-75.53637-46.833655-170.547281L489.192551 537.726174c-60.721967 18.435884-217.759559 50.338479-333.376787-65.274656-15.168468-15.173584-15.168468-39.764656 0-54.93824l167.378102-167.379125L76.667124 3.60434c-15.168468-15.174608-15.168468-39.764656 0-54.93824 7.586792-7.582699 17.525142-11.375072 27.468608-11.375072s19.882839 3.793396 27.468608 11.375072L378.132106 195.195913l167.378102-167.380148c7.586792-7.581676 17.529235-11.375072 27.468608-11.375072 9.943466 0 19.881816 3.794419 27.468608 11.375072 115.612111 115.619274 83.715657 272.65175 65.273632 333.379856l111.065562 111.061468c95.025237-27.190269 167.254282 43.543725 170.546258 46.833655C962.501344 534.260236 962.501344 558.8554 947.332876 574.024891zM783.415596 552.520111c-14.817474 6.927783-32.375362 3.854794-43.945885-7.709589L593.633229 398.97711c-11.04352-11.04352-14.358009-27.729551-8.472975-42.197054 0.174985-0.436952 17.676591-44.046169 20.654412-100.501972 2.959402-56.104809-8.947789-104.181781-35.444257-143.453203L405.622204 277.576155c-0.00921 0.00921-0.013303 0.017396-0.021489 0.026606-0.00921 0.008186-0.017396 0.01228-0.026606 0.021489L240.825904 442.374502c104.037495 70.26839 237.759055 17.302061 243.856937 14.826684 14.510482-5.988388 31.191396-2.659573 42.291199 8.436136l145.831366 145.837506c11.561313 11.565407 14.642488 29.133527 7.710612 43.946908-13.58132 28.991288-8.615215 55.815213-0.052189 75.597769l178.540326-178.542372C839.198064 543.904896 812.379255 538.950048 783.415596 552.520111zM553.209564 342.294133c1.37123-3.053546 13.353123-30.720675 12.490475-61.154825-0.521886-18.430768-15.634072-33.021068-33.955346-33.021068-0.327458 0-0.654916 0.005117-0.986467 0.014326-18.762319 0.531096-33.542954 16.173354-33.006741 34.942837 0.355087 12.565177-4.674463 27.051099-6.643304 31.575136-7.462972 17.141402 0.284479 37.184901 17.389042 44.74304C525.57518 366.956835 545.552164 359.364927 553.209564 342.294133z"  horiz-adv-x="1024" />

    
    <glyph glyph-name="control100" unicode="&#58975;" d="M511.999488 826.068278c-244.147556 0-442.068278-197.920722-442.068278-442.068278s197.920722-442.068278 442.068278-442.068278 442.068278 197.920722 442.068278 442.068278S756.147044 826.068278 511.999488 826.068278zM511.999488 17.65638100000001c-202.326055 0-366.343619 164.017564-366.343619 366.343619s164.017564 366.343619 366.343619 366.343619 366.343619-164.017564 366.343619-366.343619S714.325543 17.65638100000001 511.999488 17.65638100000001zM667.301554 407.010063L411.185408 655.1208839999999c-12.003382 12.005428-32.013111 12.005428-46.019103 0-12.006452-12.004405-12.006452-32.014134 0-44.019563l234.103806-226.100528L367.167892 156.89970200000005c-12.005428-12.005428-12.005428-32.014134 0-44.020586 12.004405-12.004405 32.015158-12.004405 46.02115 0l256.113075 248.110821C681.307545 374.99695199999996 681.307545 395.005658 667.301554 407.010063z"  horiz-adv-x="1024" />

    
    <glyph glyph-name="wangwang" unicode="&#58933;" d="M524.988833-128c-8.590774 0-17.181547 0-25.7713 0-141.583797 6.817247-249.301005 57.388289-327.993064 128.854455C92.576339 72.281799 34.27166 172.350163 25.971026 312.44853c0 7.41898 0 14.837959 0 22.256939 19.010241 228.153542 146.684729 347.65101 326.822292 414.67723C346.75965 806.996765 323.90813 854.040164 304.766101 894.638185c82.904185-28.875992 162.792557-60.790272 230.765815-104.254949 10.424575-6.666048 19.943999-15.86264 29.285661-18.742578 16.540994-5.098888 34.093388-3.997586 49.199011-7.028722 104.840335-21.035085 195.11344-72.11387 256.537115-138.225743 70.046118-75.39326 133.747998-172.493828 125.340094-323.307931-7.439412-133.453772-68.37884-232.692584-147.597032-303.393559C767.864891-72.100206 668.887613-120.707701 524.988833-128zM782.698764 535.016894c-1.048179 0.574149-3.661474-0.879612-4.686155-1.171794-26.367924-7.492536-60.424534-17.799625-84.341599-30.456433 52.124921-24.894753 62.051969-127.506942 29.285661-181.568848 30.995847 0.241102 61.913029 0.562911 91.369299 2.343588C846.286222 384.596113 832.25534 507.862325 782.698764 535.016894zM556.61706 465.903511c-4.734171 10.377581-21.466207 41.615551-31.628227 38.655928-27.159676-7.907312-60.513414-20.269894-86.683144-31.628227 46.248582-26.755116 53.586854-125.007047 29.285661-181.566805 31.165435 0.461771 61.089606 2.164806 92.540072 2.340524C582.756142 340.749352 577.723659 419.612021 556.61706 465.903511z"  horiz-adv-x="1024" />

    
    <glyph glyph-name="dayin" unicode="&#59710;" d="M903.037533 123.308653l-86.898139 0 0-86.898139c0-47.988967-38.907125-86.897116-86.896092-86.897116L294.756699-50.486602c-47.989991 0-86.898139 38.907125-86.898139 86.897116L207.85856 123.308653l-86.897116 0c-47.988967 0-86.897116 38.907125-86.897116 86.896092L34.064328 514.345674c0 47.988967 38.907125 86.898139 86.897116 86.898139L251.307118 601.243813 251.307118 731.589486c0 47.988967 38.908148 86.897116 86.898139 86.897116l347.589486 0c47.988967 0 86.896092-38.907125 86.896092-86.897116L772.690836 601.243813l130.346697 0c47.988967 0 86.897116-38.908148 86.897116-86.898139l0-304.140928C989.934648 162.214754 951.025477 123.308653 903.037533 123.308653zM294.756699 36.410514l434.486602 0L729.243301 297.102884 294.756699 297.102884 294.756699 36.410514zM685.794743 731.589486 338.205257 731.589486 338.205257 601.243813l347.589486 0L685.794743 731.589486zM903.037533 514.345674 120.961444 514.345674l0-304.140928 86.897116 0 0 86.898139c0 47.988967 38.907125 86.897116 86.898139 86.897116l434.486602 0c47.988967 0 86.896092-38.907125 86.896092-86.897116l0-86.898139 86.898139 0L903.037533 514.345674z"  horiz-adv-x="1024" />

    
    <glyph glyph-name="loudou" unicode="&#59052;" d="M121.589 729.586l299.971-397.442v-204.609l180.088-87.891v292.5l300.146 397.442h-780.205z"  horiz-adv-x="1024" />

    
    <glyph glyph-name="yanshi-copy" unicode="&#58887;" d="M886.237 498.94c-20.608 48.641-50.098 92.343-87.648 129.894s-81.254 67.039-129.894 87.648c-50.378 21.344-103.842 32.167-158.913 32.167h-24.193v-168.352c0-13.34 10.853-24.193 24.193-24.193s24.193 10.853 24.193 24.193v119.164c89.525-5.957 172.879-44.837 235.522-110.051 64.819-67.48 100.516-156.043 100.516-249.378 0-198.628-161.6-360.225-360.231-360.225-198.634 0-360.234 161.597-360.234 360.225 0 96.167 37.435 186.602 105.409 254.645 9.424 9.44 9.413 24.785-0.018 34.206-4.566 4.566-10.637 7.079-17.101 7.079-0.003 0-0.008 0-0.011 0-6.466-0.003-12.54-2.524-17.103-7.098-77.099-77.172-119.561-179.749-119.561-288.834 0-225.308 183.305-408.612 408.62-408.612 225.315 0 408.621 183.302 408.621 408.612 0 55.067-10.821 108.534-32.165 158.911zM470.028 300.256c10.96-10.96 25.358-16.439 39.755-16.439 14.396 0 28.792 5.479 39.752 16.436 10.625 10.616 16.476 24.736 16.476 39.761 0 15.023-5.85 29.147-16.473 39.767-19.084 19.088-227.119 161.757-235.966 167.819l-36.131 24.767 24.764-36.132c6.065-8.849 148.735-216.897 167.82-235.984z"  horiz-adv-x="1024" />

    
    <glyph glyph-name="account" unicode="&#59043;" d="M944.02227-24.429904C886.277185 134.094165 771.601005 249.265906 635.487737 293.474203c27.283472 13.498904 52.477195 31.503928 74.632025 53.658758 53.344425 53.344425 82.721743 124.267938 82.721743 199.707809 0 75.439871-29.377318 146.364407-82.721743 199.707809s-124.268962 82.721743-199.708833 82.721743-146.364407-29.377318-199.707809-82.721743S227.981378 622.280641 227.981378 546.841794c0-75.439871 29.377318-146.364407 82.721743-199.707809 22.186571-22.186571 47.422273-40.211048 74.75182-53.71712-136.034428-44.252324-250.634841-159.392324-308.354328-317.846769-2.745037-7.533748-1.640264-15.933703 2.958005-22.502952 4.598269-6.568224 12.112563-10.48049 20.131633-10.48049l820.743405 0c8.018046 0 15.53234 3.912266 20.130609 10.48049C945.662534-40.363607 946.766282-31.964676 944.02227-24.429904zM277.127874 546.841794c0 62.311613 24.266082 120.89526 68.326939 164.956117 44.060857 44.061881 102.644504 68.326939 164.956117 68.326939s120.89526-24.266082 164.956117-68.326939c44.061881-44.060857 68.326939-102.644504 68.326939-164.956117 0-62.312637-24.265058-120.89526-68.326939-164.956117-44.060857-44.061881-102.64348-68.326939-164.956117-68.326939-62.311613 0-120.89526 24.265058-164.956117 68.326939C301.393956 425.946534 277.127874 484.529157 277.127874 546.841794zM136.475723-8.26685c33.140096 75.787992 81.511511 140.31734 141.237813 188.041659 69.148095 55.252948 149.665413 84.457229 232.847905 84.457229 83.181468 0 163.698786-29.204281 232.846881-84.457229 59.727327-47.724319 108.098741-112.254691 141.238837-188.041659L136.475723-8.26685z"  horiz-adv-x="1025" />

    
    <glyph glyph-name="pingjia1" unicode="&#58910;" d="M405.536-36.12800000000004c-8.8 0-17.568 3.584-23.904 10.688-83.232 93.216-217.856 94.112-220.64 94.112h-0.192c-17.568 0-31.904 14.176-32.032 31.744-0.128 17.664 14.016 32.064 31.648 32.256 6.656 0.352 165.664 0.192 268.96-115.488C441.152 4 440-16.224000000000046 426.816-28a31.83 31.83 0 0 0-21.28-8.128z m214.592 0.064a31.888 31.888 0 0 0-21.76 8.544c-12.96 12-13.76 32.256-1.728 45.216 106.976 115.52 262.752 115.392 268.896 115.136 17.696-0.192 31.872-14.656 31.68-32.32-0.192-17.568-14.464-31.68-32-31.68h-0.256c-2.656 0-134.56-0.864-221.376-94.624-6.272-6.848-14.88-10.272-23.456-10.272z m-56.416 162.752H462.304c-3.232 0-6.368 0.48-9.344 1.408-108.256 13.888-200.256 76.704-259.552 177.44-68.832 116.992-84.608 268.576-39.2 377.216a32.043 32.043 0 0 0 28.896 19.648l9.632 0.096c60.96 0 117.888-11.52 169.696-34.304 37.44 68.448 80.192 120.384 127.328 154.688 2.496 2.176 5.344 4 8.512 5.344 9.888 4.288 21.376 3.36 30.432-2.528a30.641 30.641 0 0 0 4.384-3.456c47.264-34.688 88.832-85.856 126.464-155.744 52.832 23.872 111.072 35.968 173.632 35.968l9.792-0.096c12.672-0.256 24-7.968 28.896-19.648 45.408-108.672 29.664-260.256-39.232-377.248-59.296-100.672-151.264-163.52-259.488-177.44-3.04-0.832-6.176-1.344-9.44-1.344z m-95.712 64h90.016c0.672 0.128 1.376 0.224 2.08 0.32 115.712 12.864 182.08 87.072 217.376 147.008 54.048 91.872 70.432 211.936 42.528 300.32-58.24-1.888-111.616-16.16-158.816-42.528-7.712-4.288-16.832-5.184-25.184-2.624-8.384 2.624-15.328 8.608-19.2 16.512-32.448 66.368-67.232 115.2-105.824 148.48-38.624-33.216-74.176-82.4-105.92-146.592a31.969 31.969 0 0 0-19.04-16.32c-8.32-2.656-17.28-1.76-24.96 2.4-46.208 25.12-98.336 38.784-155.008 40.64-27.904-88.384-11.52-208.448 42.528-300.288 35.296-59.936 101.632-134.112 217.312-147.008 0.704-0.096 1.408-0.192 2.112-0.32zM512.768-64c-17.664 0-32 14.304-32 32V158.688c0 17.696 14.336 32 32 32s32-14.304 32-32V-32c-0.032-17.696-14.336-32-32-32z"  horiz-adv-x="1024" />

    
    <glyph glyph-name="cancel" unicode="&#58888;" d="M512 883.2A499.2 499.2 0 0 1 12.8 384 499.2 499.2 0 0 1 512-115.20000000000005 499.2 499.2 0 0 1 1011.264 384 499.2 499.2 0 0 1 512 883.2z m0-934.4A435.136 435.136 0 0 0 76.8 384 435.2 435.2 0 0 0 512 819.2 435.2 435.2 0 0 0 947.2 384c0-240.448-194.816-435.2-435.2-435.2z m194.56 573.76L567.872 383.808l138.56-138.56a39.68 39.68 0 0 0 0-56 39.744 39.744 0 0 0-56.064 0L511.872 327.808 373.44 189.44000000000005a39.744 39.744 0 0 0-56.064 0 39.68 39.68 0 0 0 0 56l138.368 138.368-138.496 138.56a39.744 39.744 0 0 0 0 56.064 39.744 39.744 0 0 0 56.064 0l138.56-138.56 138.688 138.688a39.616 39.616 0 0 0 56-56z"  horiz-adv-x="1024" />

    
    <glyph glyph-name="ruanjiankaifa" unicode="&#58989;" d="M573.98575 194.815243l62.095243-62.069661c20.463054-20.475334 53.531194-20.475334 74.014714 0 20.50194 20.47431 20.50194 53.541427 0 74.014715l-61.867046 62.056357 61.867046 61.862953s-234.275721 100.026134-243.87024 103.652732c-5.124717 1.926886-10.460236 2.990101-16.002462 2.9901-24.756847 0-44.811602-19.830651-44.811602-44.36851 0-5.758144 1.062192-11.089569 2.989077-15.998369 3.62762-9.163707 103.69878-244.212024 103.698781-244.212024l61.886489 62.071707zM0-10.575614c0-47.13553 38.194904-85.313038 85.3509-85.313037h853.498768c47.155996 0 85.34783 38.177508 85.34783 85.313037V778.575614c0 47.13553-38.191834 85.313038-85.34783 85.313037H85.3509C38.194904 863.888651 0 825.711144 0 778.575614v-789.151228z m153.634076 575.865563h716.929346c26.024723 0 46.947242-20.901029 46.947242-46.924729v-460.685287c0-26.024723-20.922519-46.928822-46.947242-46.928822H153.634076a46.800909 46.800909 0 0 0-46.946218 46.928822V518.36522a46.798862 46.798862 0 0 0 46.946218 46.924729zM106.688881 703.925427c0 29.429263 23.898293 53.323463 53.342905 53.323462 29.442566 0 53.342906-23.8942 53.342906-53.323462 0-29.432333-23.899316-53.319369-53.342906-53.31937-29.444613-0.001023-53.342906 23.886013-53.342905 53.31937z m192.034664 0c0 29.429263 23.899316 53.323463 53.345976 53.323462 29.440519 0 53.342906-23.8942 53.342905-53.323462 0-29.432333-23.901363-53.319369-53.342905-53.31937-29.446659-0.001023-53.345975 23.886013-53.345976 53.31937z m192.037735 0c0 29.429263 23.899316 53.323463 53.342905 53.323462s53.345975-23.8942 53.345976-53.323462c0-29.432333-23.901363-53.319369-53.345976-53.31937-29.443589-0.001023-53.342906 23.886013-53.342905 53.31937z"  horiz-adv-x="1024" />

    
    <glyph glyph-name="huiyuanguanli" unicode="&#58883;" d="M368.55808 143.34464H112.63488c-29.48608 0-53.46816 23.98208-53.46816 53.47328v49.86368a53.4528 53.4528 0 0 0 22.10816 43.2896c7.168 5.21216 15.85664 10.3424 23.18336 13.66016l180.60288 97.93536 17.08032 24.59648-16.70656-20.85376C221.7472 456.38144 198.62016 556.7744 198.62016 611.82464V729.49248C198.62016 808.4736 305.54112 891.97056 406.59968 891.97056c99.77856 0 205.312-83.52256 205.312-162.47808v-117.66272c0-14.57152-2.29888-144.22016-82.07872-206.91456 1.2032-14.70464-10.13248-28.63616-24.86272-29.86496-14.70464-1.22368-28.04736 8.71424-29.27616 23.41888a55.77216 55.77216 0 0 0 21.03808 48.47616c48.8192 38.36416 61.71136 124.6464 61.71136 164.91008V729.51808c0 41.06752-70.95808 109.0048-151.83872 109.0048-79.67232 0-154.51136-67.9936-154.51136-109.0048v-117.66784c0-46.19776 20.72064-127.85152 66.7904-164.77696a55.7056 55.7056 0 0 0 20.63872-48.52736 55.92576 55.92576 0 0 0-28.98432-43.98592l-182.36416-98.7904a98.51904 98.51904 0 0 1-15.5648-9.088v-49.85856h255.91808a26.73152 26.73152 0 0 0 26.73664-26.74176 26.7008 26.7008 0 0 0-26.70592-26.73664z m402.06336-216.54016l5.51424 24.94464c0.74752 0.29696 1.52064 0.6144 2.26304 0.93696l20.61312-13.12256c23.3472-16.2304 58.55744-14.83776 77.696 4.40832l21.25824 21.25312c18.85184 18.84672 20.37248 49.27488 4.03968 75.15648l-13.60896 22.72256c0.20992 0.5632 0.45056 1.1008 0.66048 1.65888l24.94976 6.23104c30.42304 7.00416 50.82624 29.5424 50.82624 56.15104v30.07488c0 31.60576-26.70592 53.49888-50.80064 57.856l-24.27392 5.376c-0.43008 1.06496-0.84992 2.14016-1.33632 3.21024l13.2608 22.10304c16.60416 26.44992 15.0784 56.85248-3.71712 75.63776l-21.30944 21.30944c-19.22048 19.2256-55.39328 19.84-76.78464 4.97152l-21.44256-13.66016c-0.85504 0.37376-1.73568 0.72192-2.64704 1.1008l-5.26848 23.74144c-4.48512 25.13408-26.33216 51.87072-58.01472 51.87072h-30.01856c-26.60352 0-49.17248-20.42368-56.0128-50.31936l-6.20032-24.84224c-1.6896-0.6656-3.31776-1.36192-5.00736-2.08384l-21.28384 13.55264c-23.25504 16.17408-58.4704 14.83776-77.66528-4.38272l-21.25312-21.25312c-18.85184-18.82624-20.352-49.21856-4.03968-75.20768l14.70464-24.54528c-0.15872-0.42496-0.34816-0.82432-0.512-1.2288l-23.26016-5.18656c-25.12896-4.55168-51.8144-26.4448-51.8144-58.04544v-30.08c0-26.57792 20.4288-49.14176 50.34496-56.0384l25.18528-6.25664-14.3872-23.9872c-16.54784-26.40896-15.04768-56.79104 3.77344-75.61216l21.1968-21.17632c19.23072-19.328 55.3728-20.05504 76.8768-5.02784l22.2208 14.17216c1.70496-0.74752 3.44576-1.48992 5.16096-2.16576l6.0416-24.17152c7.00416-30.42304 29.5424-50.82624 56.15104-50.82624h30.07488c31.5648-0.04608 53.48864 26.66496 57.84576 50.78016z m-171.48416 79.44192l-35.6352-22.77888c-1.52576-1.04448-4.49536-2.19648-9.39008-1.68448l-20.80256 20.39296c-0.29696 1.23392 0.37376 5.62176 3.52768 10.6752l21.98016 36.65408a26.76224 26.76224 0 0 1 1.03936 25.58464 151.73632 151.73632 0 0 0-8.39168 20.39808 26.7264 26.7264 0 0 1-18.95936 17.69472l-39.59808 9.87136c-5.34528 1.22368-8.92416 3.88096-9.32864 4.00896v30.02368c0.32256 1.43872 4.09088 4.80768 8.92928 5.69344l38.58432 8.55552a26.7264 26.7264 0 0 1 19.73248 18.18112c2.08384 6.71232 5.02784 13.90592 9.00608 21.94944a26.76224 26.76224 0 0 1-1.03936 25.58464l-22.2208 37.07904c-2.88256 4.62848-3.55328 9.04192-3.7376 9.4464l23.6032 21.632c2.78528 0 5.61664-1.0752 7.94624-2.67264l34.70336-22.10816a26.83904 26.83904 0 0 1 26.86976-1.0752 152.94976 152.94976 0 0 0 24.8832 10.45504 26.71104 26.71104 0 0 1 17.83296 18.97984l9.78432 39.14752c1.2032 5.29408 3.82464 8.87296 4.01408 9.29792h30.02368c1.41312-0.31744 4.75136-4.03456 5.64224-8.89856l8.6528-39.0656a26.74688 26.74688 0 0 1 17.83808-19.62496 155.42784 155.42784 0 0 0 23.5008-9.86112 26.752 26.752 0 0 1 26.65472 1.17248l34.72896 22.1696c1.49504 1.00352 4.38272 2.13504 9.38496 1.70496l20.80256-20.48c0.29184-1.2032-0.37376-5.61664-3.55328-10.67008l-20.88448-34.78016a26.77248 26.77248 0 0 1-0.88064-25.96352 147.74272 147.74272 0 0 0 9.7792-23.5264 26.79296 26.79296 0 0 1 19.712-18.0736l39.59296-8.74496c3.82464-0.69632 7.59296-4.06528 7.92064-5.4528l0.23552-29.13792c-0.64512-1.09568-4.224-3.74272-10.05056-5.05344l-39.1168-9.75872a26.7264 26.7264 0 0 1-18.92864-17.6128 151.68 151.68 0 0 0-9.14432-21.86752 26.7776 26.7776 0 0 1 0.82944-25.9328l21.22752-35.39968c2.85696-4.57216 3.52768-8.92928 3.712-9.35936l-23.57248-21.65248c-2.81088 0-5.59104 1.04448-7.97184 2.69824l-33.96096 21.63712a26.76736 26.76736 0 0 1-26.65472 1.17248 150.40512 150.40512 0 0 0-23.12192-9.6768 26.81344 26.81344 0 0 1-17.83808-19.65056l-8.85248-40.16128c-0.69632-3.79904-4.03456-7.56736-5.47328-7.91552l-29.09696-0.24576c-1.09056 0.64512-3.7376 4.224-5.0432 10.05568l-9.60512 38.528a26.7776 26.7776 0 0 1-18.048 19.06688c-8.23296 2.56512-16.3584 5.9904-24.91392 10.50624a26.80832 26.80832 0 0 1-12.48256 3.07712c-5.0176-0.01536-9.99424-1.4336-14.37696-4.20864z m215.97184 137.09824c0 64.75264-52.74624 117.4528-117.58592 117.4528-64.89088 0-117.64224-52.70016-117.64224-117.4528 0-64.73216 52.78208-117.4016 117.64224-117.4016 64.83968 0 117.58592 52.66944 117.58592 117.4016z m-53.46304 0c0-35.23584-28.76928-63.9232-64.11264-63.9232-35.37408 0-64.17408 28.66176-64.17408 63.9232 0 35.27168 28.8 63.97952 64.17408 63.97952 35.33824-0.0256 64.11264-28.70784 64.11264-63.97952z"  horiz-adv-x="1024" />

    
    <glyph glyph-name="xuanzeanniukuang" unicode="&#58919;" d="M511.7 831.3c-247.4 0-448-200.6-448-448s200.6-448 448-448 448 200.6 448 448-200.6 448-448 448z m-0.2-850.5c-222.6 0-403 180.4-403 403s180.4 403 403 403 403-180.4 403-403-180.5-403-403-403z"  horiz-adv-x="1024" />

    
    <glyph glyph-name="xuanzeanniu" unicode="&#58920;" d="M511.7 831.3c-247.4 0-448-200.6-448-448s200.6-448 448-448 448 200.6 448 448-200.6 448-448 448z m-0.2-850.5c-222.6 0-403 180.4-403 403s180.4 403 403 403 403-180.4 403-403-180.5-403-403-403zM512 382.8m-275 0a275 275 0 1 1 550 0 275 275 0 1 1-550 0Z"  horiz-adv-x="1024" />

    
    <glyph glyph-name="zhongyaogaojing" unicode="&#58907;" d="M252.733 783.172c-8.928 15.639-3.277 33.454 11.118 42.366 5.635 3.277 12.189 4.368 17.854 4.368 10.006-1.092 18.944-6.735 24.594-15.644l41.155-70.192-54.649-31.099-40.076 70.198zM782.291 783.172c8.922 15.639 3.284 34.545-12.205 42.366-15.658 8.912-34.604 2.182-43.54-11.094l-40.076-70.192 54.649-31.093 41.172 70.015zM548.206 862.282c0 17.814-14.575 31.091-31.158 31.091-17.856 0-32.236-13.278-32.236-31.091v-81.295h63.568v81.295h-0.175zM955.17 641.876c-5.651 8.908-14.572 14.541-24.594 15.635-5.651 0-12.221 0-17.854-3.27l-70.316-41.102 31.149-54.548 71.402 41.095c13.49 7.638 19.134 26.546 10.213 42.191M865.114-43.291h-22.811c2.036 3.049 3.040 7.257 3.040 11.302v31.026c0 14.51-11.31 25.811-25.85 25.811h-601.562c-14.519 0-25.843-11.302-25.843-25.811v-31.026c0-4.045 1.019-8.255 3.049-11.302h-22.803c-14.541 0-25.851-11.293-25.851-25.794v-31.033c0-14.503 11.31-25.804 25.851-25.804h693.799c14.525 0 25.85 11.302 25.85 25.804v31.033c-1.026 13.324-12.342 25.794-26.868 25.794M810.16 84.313h-585.285v308.24c0 161.302 131.501 291.509 293.281 291.509 161.586 0 293.277-130.209 293.277-291.509v-308.239h-1.268zM192.625 611.868l-71.409 41.1c-3.278 2.182-7.827 3.275-11.118 3.275-12.205 1.091-24.588-4.366-31.149-15.639-8.928-15.639-4.364-33.462 11.109-42.37l71.417-41.1 31.15 54.736z"  horiz-adv-x="1024" />

    
    <glyph glyph-name="dizhi-01" unicode="&#58893;" d="M498.809 86.266v0.021l14.023-13.336 13.858 13.502c10.32 10.07 252.759 249.224 252.759 472.103 0 149.89-119.679 271.817-266.783 271.817-147.103 0-266.782-121.927-266.782-271.817 0-228.893 242.605-462.449 252.925-472.29z m13.857 702.805c124.737 0 226.231-103.408 226.231-230.515 0-176.107-175.214-373.978-226.396-428.014-51.331 53.06-226.064 246.996-226.064 428.014-0.001 127.107 101.473 230.515 226.229 230.515zM709.975 203.865c-11.027 1.519-21.326-6.263-22.907-17.562-1.561-11.275 6.158-21.742 17.248-23.345 156.737-22.575 215.141-65.04 215.141-86.493 0-40.552-158.464-99.477-406.791-99.477s-406.79 58.925-406.79 99.477c0 21.286 57.842 63.522 213.081 86.203 11.09 1.623 18.788 12.089 17.187 23.388-1.582 11.275-11.881 19.078-22.929 17.519-74.551-10.904-247.89-45.089-247.89-127.109 0-92.422 225.044-140.777 447.342-140.777 222.298 0 447.342 48.355 447.342 140.777-0.001 82.478-174.861 116.558-250.034 127.399zM641.841 573.399c0 71.797-58.203 130-130 130s-130-58.203-130-130 58.203-130 130-130 130 58.203 130 130z m-130-90c-49.706 0-90 40.294-90 90s40.294 90 90 90 90-40.294 90-90-40.294-90-90-90z"  horiz-adv-x="1024" />

    
    </font>
</defs>
</svg>
